<?xml version="1.0" encoding="UTF-8" standalone="no"?>
<!DOCTYPE svg PUBLIC "-//W3C//DTD SVG 1.1//EN" "http://www.w3.org/Graphics/SVG/1.1/DTD/svg11.dtd">
<svg width="100%" height="100%" viewBox="0 0 833 694" version="1.1" xmlns="http://www.w3.org/2000/svg" xmlns:xlink="http://www.w3.org/1999/xlink" xml:space="preserve" xmlns:serif="http://www.serif.com/" style="fill-rule:evenodd;clip-rule:evenodd;stroke-linejoin:round;stroke-miterlimit:2;">
    <g transform="matrix(1,0,0,1,-146.25,-580.499847)">
        <g transform="matrix(1,0,0,0.878359,6,72.808345)">
            <path d="M160.602,578L160.602,587.384C158.44,587.384 157.04,587.487 156.402,587.695C155.764,587.902 155.296,588.384 154.996,589.14C154.697,589.896 154.547,592.038 154.547,595.566L154.547,632.434C154.547,635.725 154.664,637.778 154.898,638.593C155.133,639.409 155.569,639.95 156.207,640.216C156.845,640.483 158.31,640.617 160.602,640.617L160.602,650L155.641,650C151.057,650 147.691,649.519 145.543,648.555C143.395,647.591 141.975,646.176 141.285,644.308C140.595,642.44 140.25,638.467 140.25,632.389L140.25,595.611C140.25,589.563 140.589,585.59 141.266,583.692C141.943,581.795 143.388,580.372 145.602,579.423C147.815,578.474 151.161,578 155.641,578L160.602,578Z" style="fill-rule:nonzero;"/>
        </g>
        <g transform="matrix(1,0,0,0.878359,6,72.808345)">
            <path d="M178.961,613.845L164.156,613.845L164.156,609.887C164.156,605.321 164.618,601.8 165.543,599.324C166.467,596.849 168.323,594.662 171.109,592.765C173.896,590.867 177.516,589.919 181.969,589.919C187.307,589.919 191.331,590.993 194.039,593.143C196.747,595.292 198.375,597.931 198.922,601.059C199.469,604.187 199.742,610.628 199.742,620.382L199.742,650L184.391,650L184.391,644.753C183.427,646.858 182.184,648.436 180.66,649.489C179.137,650.541 177.32,651.068 175.211,651.068C172.451,651.068 169.918,650.186 167.613,648.422C165.309,646.658 164.156,642.796 164.156,636.837L164.156,631.989C164.156,627.572 164.768,624.562 165.992,622.961C167.216,621.36 170.25,619.492 175.094,617.358C180.276,615.045 183.049,613.489 183.414,612.688C183.779,611.888 183.961,610.257 183.961,607.796C183.961,604.713 183.759,602.704 183.355,601.77C182.952,600.836 182.281,600.369 181.344,600.369C180.276,600.369 179.612,600.762 179.352,601.548C179.091,602.334 178.961,604.372 178.961,607.663L178.961,613.845ZM183.961,621.938C181.435,624.043 179.97,625.808 179.566,627.231C179.163,628.654 178.961,630.699 178.961,633.368C178.961,636.422 179.137,638.393 179.488,639.283C179.84,640.172 180.536,640.617 181.578,640.617C182.568,640.617 183.212,640.268 183.512,639.572C183.811,638.875 183.961,637.044 183.961,634.079L183.961,621.938Z" style="fill-rule:nonzero;"/>
        </g>
        <g transform="matrix(1,0,0,0.878359,6,72.808345)">
            <path d="M239.391,578L239.391,587.117C236.135,587.117 234.215,587.287 233.629,587.628C233.043,587.969 232.75,588.94 232.75,590.541L232.75,592.409L239.391,592.409L239.391,601.748L235.641,601.748L235.641,650L219.859,650L219.859,601.748L216.617,601.748L216.617,592.409L219.859,592.409C219.859,588.525 219.977,585.931 220.211,584.626C220.445,583.322 221.025,582.158 221.949,581.135C222.874,580.112 224.169,579.334 225.836,578.8C227.503,578.267 230.094,578 233.609,578L239.391,578Z" style="fill-rule:nonzero;"/>
        </g>
        <g transform="matrix(1,0,0,0.878359,6,72.808345)">
            <path d="M258.18,590.986L257.555,598.724C259.846,593.18 263.167,590.245 267.516,589.919L267.516,610.687C264.625,610.687 262.503,611.132 261.148,612.021C259.794,612.911 258.961,614.148 258.648,615.735C258.336,617.321 258.18,620.975 258.18,626.697L258.18,650L242.398,650L242.398,590.986L258.18,590.986Z" style="fill-rule:nonzero;"/>
        </g>
        <g transform="matrix(1,0,0,0.878359,6,72.808345)">
            <path d="M287.281,578L287.281,587.384L271.031,587.384L271.031,578L287.281,578ZM287.281,590.986L287.281,650L271.031,650L271.031,590.986L287.281,590.986Z" style="fill-rule:nonzero;"/>
        </g>
        <g transform="matrix(1,0,0,0.878359,6,72.808345)">
            <path d="M328.688,621.538L308.258,621.538L308.258,634.302C308.258,636.97 308.427,638.69 308.766,639.46C309.104,640.231 309.755,640.617 310.719,640.617C311.917,640.617 312.717,640.105 313.121,639.082C313.525,638.06 313.727,636.081 313.727,633.145L313.727,625.363L328.688,625.363L328.688,629.721C328.688,633.368 328.486,636.17 328.082,638.126C327.678,640.083 326.734,642.173 325.25,644.397C323.766,646.62 321.884,648.288 319.605,649.4C317.327,650.512 314.469,651.068 311.031,651.068C307.698,651.068 304.755,650.519 302.203,649.422C299.651,648.325 297.665,646.821 296.246,644.908C294.827,642.996 293.844,640.891 293.297,638.593C292.75,636.296 292.477,632.953 292.477,628.565L292.477,611.354C292.477,606.195 293.089,602.126 294.312,599.146C295.536,596.167 297.542,593.884 300.328,592.298C303.115,590.712 306.318,589.919 309.938,589.919C314.365,589.919 318.017,590.875 320.895,592.787C323.772,594.699 325.79,597.234 326.949,600.392C328.108,603.549 328.688,607.989 328.688,613.711L328.688,621.538ZM312.867,611.932L312.867,607.618C312.867,604.565 312.724,602.593 312.438,601.704C312.151,600.814 311.565,600.369 310.68,600.369C309.586,600.369 308.909,600.747 308.648,601.504C308.388,602.26 308.258,604.298 308.258,607.618L308.258,611.932L312.867,611.932Z" style="fill-rule:nonzero;"/>
        </g>
        <g transform="matrix(1,0,0,0.878359,6,72.808345)">
            <path d="M349.898,590.986L349.625,596.411C350.771,594.247 352.171,592.624 353.824,591.542C355.478,590.46 357.385,589.919 359.547,589.919C362.255,589.919 364.469,590.645 366.188,592.098C367.906,593.55 369.013,595.381 369.508,597.59C370.003,599.799 370.25,603.483 370.25,608.641L370.25,650L354.469,650L354.469,609.13C354.469,605.069 354.352,602.593 354.117,601.704C353.883,600.814 353.232,600.369 352.164,600.369C351.044,600.369 350.341,600.881 350.055,601.904C349.768,602.927 349.625,605.662 349.625,610.109L349.625,650L333.844,650L333.844,590.986L349.898,590.986Z" style="fill-rule:nonzero;"/>
        </g>
        <g transform="matrix(1,0,0,0.878359,6,72.808345)">
            <path d="M411.578,578L411.578,650L395.797,650L395.797,645.731C394.286,647.51 392.698,648.844 391.031,649.734C389.365,650.623 387.62,651.068 385.797,651.068C383.349,651.068 381.227,650.334 379.43,648.866C377.633,647.399 376.48,645.701 375.973,643.774C375.465,641.847 375.211,638.704 375.211,634.346L375.211,606.729C375.211,602.193 375.465,598.976 375.973,597.079C376.48,595.181 377.646,593.513 379.469,592.075C381.292,590.637 383.466,589.919 385.992,589.919C387.945,589.919 389.736,590.319 391.363,591.119C392.991,591.92 394.469,593.121 395.797,594.722L395.797,578L411.578,578ZM395.797,605.84C395.797,603.675 395.634,602.222 395.309,601.481C394.983,600.74 394.339,600.369 393.375,600.369C392.438,600.369 391.806,600.703 391.48,601.37C391.155,602.037 390.992,603.527 390.992,605.84L390.992,634.746C390.992,637.148 391.148,638.727 391.461,639.483C391.773,640.239 392.372,640.617 393.258,640.617C394.273,640.617 394.951,640.194 395.289,639.349C395.628,638.504 395.797,636.436 395.797,633.145L395.797,605.84Z" style="fill-rule:nonzero;"/>
        </g>
        <g transform="matrix(1,0,0,0.878359,6,72.808345)">
            <rect x="417.242" y="578" width="16.25" height="72"/>
        </g>
        <g transform="matrix(1,0,0,0.878359,6,72.808345)">
            <path d="M472.203,590.986L467.672,633.679C466.969,640.439 466.376,645.049 465.895,647.51C465.413,649.971 464.612,652.002 463.492,653.603C462.372,655.204 460.816,656.382 458.824,657.138C456.832,657.894 453.648,658.272 449.273,658.272L439.703,658.272L439.703,648.844C442.151,648.844 443.727,648.703 444.43,648.422C445.133,648.14 445.484,647.51 445.484,646.532C445.484,646.057 445.159,643.997 444.508,640.35L435.875,590.986L450.211,590.986L455.367,630.788L457.867,590.986L472.203,590.986Z" style="fill-rule:nonzero;"/>
        </g>
        <g transform="matrix(1,0,0,0.878359,6,72.808345)">
            <path d="M524.977,590.986L524.977,636.436C524.977,642.574 524.853,646.539 524.605,648.333C524.358,650.126 523.479,652.024 521.969,654.025C520.458,656.026 518.355,657.553 515.66,658.606C512.965,659.658 509.573,660.184 505.484,660.184C500.458,660.184 496.422,659.214 493.375,657.272C490.328,655.33 488.753,651.512 488.648,645.82L503.961,645.82C503.961,648.429 504.794,649.734 506.461,649.734C507.659,649.734 508.453,649.333 508.844,648.533C509.234,647.732 509.43,646.057 509.43,643.507L509.43,639.06C508.076,640.454 506.65,641.506 505.152,642.218C503.655,642.929 502.086,643.285 500.445,643.285C497.607,643.285 495.27,642.633 493.434,641.328C491.598,640.024 490.341,638.312 489.664,636.192C488.987,634.072 488.648,631.055 488.648,627.142L488.648,605.706C488.648,600.103 489.534,596.071 491.305,593.61C493.076,591.149 495.771,589.919 499.391,589.919C501.37,589.919 503.173,590.378 504.801,591.297C506.428,592.216 507.88,593.595 509.156,595.433L510.289,590.986L524.977,590.986ZM509.156,606.64C509.156,603.942 509.02,602.222 508.746,601.481C508.473,600.74 507.867,600.369 506.93,600.369C506.018,600.369 505.374,600.792 504.996,601.637C504.618,602.482 504.43,604.15 504.43,606.64L504.43,626.475C504.43,629.113 504.573,630.825 504.859,631.611C505.146,632.397 505.745,632.79 506.656,632.79C507.698,632.79 508.375,632.315 508.688,631.367C509,630.418 509.156,628.268 509.156,624.918L509.156,606.64Z" style="fill-rule:nonzero;"/>
        </g>
        <g transform="matrix(1,0,0,0.878359,6,72.808345)">
            <path d="M544.703,613.845L529.898,613.845L529.898,609.887C529.898,605.321 530.361,601.8 531.285,599.324C532.21,596.849 534.065,594.662 536.852,592.765C539.638,590.867 543.258,589.919 547.711,589.919C553.049,589.919 557.073,590.993 559.781,593.143C562.49,595.292 564.117,597.931 564.664,601.059C565.211,604.187 565.484,610.628 565.484,620.382L565.484,650L550.133,650L550.133,644.753C549.169,646.858 547.926,648.436 546.402,649.489C544.879,650.541 543.062,651.068 540.953,651.068C538.193,651.068 535.66,650.186 533.355,648.422C531.051,646.658 529.898,642.796 529.898,636.837L529.898,631.989C529.898,627.572 530.51,624.562 531.734,622.961C532.958,621.36 535.992,619.492 540.836,617.358C546.018,615.045 548.792,613.489 549.156,612.688C549.521,611.888 549.703,610.257 549.703,607.796C549.703,604.713 549.501,602.704 549.098,601.77C548.694,600.836 548.023,600.369 547.086,600.369C546.018,600.369 545.354,600.762 545.094,601.548C544.833,602.334 544.703,604.372 544.703,607.663L544.703,613.845ZM549.703,621.938C547.177,624.043 545.712,625.808 545.309,627.231C544.905,628.654 544.703,630.699 544.703,633.368C544.703,636.422 544.879,638.393 545.23,639.283C545.582,640.172 546.279,640.617 547.32,640.617C548.31,640.617 548.954,640.268 549.254,639.572C549.553,638.875 549.703,637.044 549.703,634.079L549.703,621.938Z" style="fill-rule:nonzero;"/>
        </g>
        <g transform="matrix(1,0,0,0.878359,6,72.808345)">
            <path d="M586.5,590.986L586.227,596.589C587.451,594.366 588.909,592.698 590.602,591.586C592.294,590.474 594.221,589.919 596.383,589.919C600.602,589.919 603.922,592.142 606.344,596.589C607.672,594.366 609.169,592.698 610.836,591.586C612.503,590.474 614.352,589.919 616.383,589.919C619.065,589.919 621.285,590.66 623.043,592.142C624.801,593.625 625.927,595.44 626.422,597.59C626.917,599.739 627.164,603.231 627.164,608.063L627.164,650L611.852,650L611.852,611.532C611.852,606.492 611.702,603.371 611.402,602.171C611.103,600.97 610.406,600.369 609.312,600.369C608.193,600.369 607.47,600.962 607.145,602.148C606.819,603.334 606.656,606.462 606.656,611.532L606.656,650L591.344,650L591.344,612.51C591.344,606.729 591.22,603.26 590.973,602.104C590.725,600.948 590.042,600.369 588.922,600.369C588.219,600.369 587.62,600.673 587.125,601.281C586.63,601.889 586.357,602.63 586.305,603.505C586.253,604.379 586.227,606.24 586.227,609.086L586.227,650L570.914,650L570.914,590.986L586.5,590.986Z" style="fill-rule:nonzero;"/>
        </g>
        <g transform="matrix(1,0,0,0.878359,6,72.808345)">
            <path d="M668.336,621.538L647.906,621.538L647.906,634.302C647.906,636.97 648.076,638.69 648.414,639.46C648.753,640.231 649.404,640.617 650.367,640.617C651.565,640.617 652.366,640.105 652.77,639.082C653.173,638.06 653.375,636.081 653.375,633.145L653.375,625.363L668.336,625.363L668.336,629.721C668.336,633.368 668.134,636.17 667.73,638.126C667.327,640.083 666.383,642.173 664.898,644.397C663.414,646.62 661.533,648.288 659.254,649.4C656.975,650.512 654.117,651.068 650.68,651.068C647.346,651.068 644.404,650.519 641.852,649.422C639.299,648.325 637.314,646.821 635.895,644.908C634.475,642.996 633.492,640.891 632.945,638.593C632.398,636.296 632.125,632.953 632.125,628.565L632.125,611.354C632.125,606.195 632.737,602.126 633.961,599.146C635.185,596.167 637.19,593.884 639.977,592.298C642.763,590.712 645.966,589.919 649.586,589.919C654.013,589.919 657.665,590.875 660.543,592.787C663.421,594.699 665.439,597.234 666.598,600.392C667.757,603.549 668.336,607.989 668.336,613.711L668.336,621.538ZM652.516,611.932L652.516,607.618C652.516,604.565 652.372,602.593 652.086,601.704C651.799,600.814 651.214,600.369 650.328,600.369C649.234,600.369 648.557,600.747 648.297,601.504C648.036,602.26 647.906,604.298 647.906,607.618L647.906,611.932L652.516,611.932Z" style="fill-rule:nonzero;"/>
        </g>
        <g transform="matrix(1,0,0,0.878359,6,72.808345)">
            <path d="M723.297,611.71L723.297,626.163C723.297,631.47 723.062,635.362 722.594,637.837C722.125,640.313 721.122,642.625 719.586,644.775C718.049,646.924 716.077,648.511 713.668,649.533C711.259,650.556 708.492,651.068 705.367,651.068C701.878,651.068 698.922,650.63 696.5,649.756C694.078,648.881 692.197,647.562 690.855,645.798C689.514,644.034 688.557,641.899 687.984,639.394C687.411,636.889 687.125,633.131 687.125,628.12L687.125,613C687.125,607.515 687.646,603.231 688.688,600.147C689.729,597.064 691.604,594.588 694.312,592.72C697.021,590.852 700.484,589.919 704.703,589.919C708.245,589.919 711.285,590.519 713.824,591.72C716.363,592.92 718.323,594.484 719.703,596.411C721.083,598.339 722.027,600.325 722.535,602.371C723.043,604.416 723.297,607.529 723.297,611.71ZM707.516,607.263C707.516,604.239 707.372,602.334 707.086,601.548C706.799,600.762 706.188,600.369 705.25,600.369C704.312,600.369 703.688,600.762 703.375,601.548C703.062,602.334 702.906,604.239 702.906,607.263L702.906,633.901C702.906,636.688 703.062,638.504 703.375,639.349C703.688,640.194 704.299,640.617 705.211,640.617C706.148,640.617 706.767,640.231 707.066,639.46C707.366,638.69 707.516,637.029 707.516,634.48L707.516,607.263Z" style="fill-rule:nonzero;"/>
        </g>
        <g transform="matrix(1,0,0,0.878359,6,72.808345)">
            <path d="M748.609,578L748.609,587.117C745.354,587.117 743.434,587.287 742.848,587.628C742.262,587.969 741.969,588.94 741.969,590.541L741.969,592.409L748.609,592.409L748.609,601.748L744.859,601.748L744.859,650L729.078,650L729.078,601.748L725.836,601.748L725.836,592.409L729.078,592.409C729.078,588.525 729.195,585.931 729.43,584.626C729.664,583.322 730.243,582.158 731.168,581.135C732.092,580.112 733.388,579.334 735.055,578.8C736.721,578.267 739.312,578 742.828,578L748.609,578Z" style="fill-rule:nonzero;"/>
        </g>
        <g transform="matrix(1,0,0,0.878359,6,72.808345)">
            <path d="M782.359,583.114L782.359,592.409L786.617,592.409L786.617,601.748L782.359,601.748L782.359,633.323C782.359,637.207 782.535,639.372 782.887,639.816C783.238,640.261 784.703,640.483 787.281,640.483L787.281,650L780.914,650C777.32,650 774.755,649.83 773.219,649.489C771.682,649.148 770.328,648.362 769.156,647.132C767.984,645.902 767.255,644.493 766.969,642.907C766.682,641.321 766.539,637.593 766.539,631.722L766.539,601.748L763.141,601.748L763.141,592.409L766.539,592.409L766.539,583.114L782.359,583.114Z" style="fill-rule:nonzero;"/>
        </g>
        <g transform="matrix(1,0,0,0.878359,6,72.808345)">
            <path d="M804.195,613.845L789.391,613.845L789.391,609.887C789.391,605.321 789.853,601.8 790.777,599.324C791.702,596.849 793.557,594.662 796.344,592.765C799.13,590.867 802.75,589.919 807.203,589.919C812.542,589.919 816.565,590.993 819.273,593.143C821.982,595.292 823.609,597.931 824.156,601.059C824.703,604.187 824.977,610.628 824.977,620.382L824.977,650L809.625,650L809.625,644.753C808.661,646.858 807.418,648.436 805.895,649.489C804.371,650.541 802.555,651.068 800.445,651.068C797.685,651.068 795.152,650.186 792.848,648.422C790.543,646.658 789.391,642.796 789.391,636.837L789.391,631.989C789.391,627.572 790.003,624.562 791.227,622.961C792.451,621.36 795.484,619.492 800.328,617.358C805.51,615.045 808.284,613.489 808.648,612.688C809.013,611.888 809.195,610.257 809.195,607.796C809.195,604.713 808.993,602.704 808.59,601.77C808.186,600.836 807.516,600.369 806.578,600.369C805.51,600.369 804.846,600.762 804.586,601.548C804.326,602.334 804.195,604.372 804.195,607.663L804.195,613.845ZM809.195,621.938C806.669,624.043 805.204,625.808 804.801,627.231C804.397,628.654 804.195,630.699 804.195,633.368C804.195,636.422 804.371,638.393 804.723,639.283C805.074,640.172 805.771,640.617 806.812,640.617C807.802,640.617 808.447,640.268 808.746,639.572C809.046,638.875 809.195,637.044 809.195,634.079L809.195,621.938Z" style="fill-rule:nonzero;"/>
        </g>
        <g transform="matrix(1,0,0,0.878359,6,72.808345)">
            <path d="M846.188,578L846.188,595.033C847.49,593.313 848.941,592.031 850.543,591.186C852.145,590.341 853.883,589.919 855.758,589.919C857.919,589.919 859.794,590.304 861.383,591.075C862.971,591.846 864.182,592.928 865.016,594.321C865.849,595.715 866.35,597.079 866.52,598.413C866.689,599.747 866.773,602.593 866.773,606.951L866.773,633.546C866.773,637.874 866.52,641.099 866.012,643.218C865.504,645.338 864.312,647.176 862.438,648.733C860.562,650.289 858.336,651.068 855.758,651.068C853.909,651.068 852.184,650.608 850.582,649.689C848.98,648.77 847.516,647.391 846.188,645.553L845.172,650L830.406,650L830.406,578L846.188,578ZM850.992,607.752C850.992,604.698 850.823,602.704 850.484,601.77C850.146,600.836 849.482,600.369 848.492,600.369C847.529,600.369 846.904,600.777 846.617,601.592C846.331,602.408 846.188,604.461 846.188,607.752L846.188,633.19C846.188,636.362 846.35,638.393 846.676,639.283C847.001,640.172 847.646,640.617 848.609,640.617C849.599,640.617 850.243,640.157 850.543,639.238C850.842,638.319 850.992,636.11 850.992,632.612L850.992,607.752Z" style="fill-rule:nonzero;"/>
        </g>
        <g transform="matrix(1,0,0,0.878359,6,72.808345)">
            <path d="M907.672,611.71L907.672,626.163C907.672,631.47 907.438,635.362 906.969,637.837C906.5,640.313 905.497,642.625 903.961,644.775C902.424,646.924 900.452,648.511 898.043,649.533C895.634,650.556 892.867,651.068 889.742,651.068C886.253,651.068 883.297,650.63 880.875,649.756C878.453,648.881 876.572,647.562 875.23,645.798C873.889,644.034 872.932,641.899 872.359,639.394C871.786,636.889 871.5,633.131 871.5,628.12L871.5,613C871.5,607.515 872.021,603.231 873.062,600.147C874.104,597.064 875.979,594.588 878.688,592.72C881.396,590.852 884.859,589.919 889.078,589.919C892.62,589.919 895.66,590.519 898.199,591.72C900.738,592.92 902.698,594.484 904.078,596.411C905.458,598.339 906.402,600.325 906.91,602.371C907.418,604.416 907.672,607.529 907.672,611.71ZM891.891,607.263C891.891,604.239 891.747,602.334 891.461,601.548C891.174,600.762 890.562,600.369 889.625,600.369C888.688,600.369 888.062,600.762 887.75,601.548C887.438,602.334 887.281,604.239 887.281,607.263L887.281,633.901C887.281,636.688 887.438,638.504 887.75,639.349C888.062,640.194 888.674,640.617 889.586,640.617C890.523,640.617 891.142,640.231 891.441,639.46C891.741,638.69 891.891,637.029 891.891,634.48L891.891,607.263Z" style="fill-rule:nonzero;"/>
        </g>
        <g transform="matrix(1,0,0,0.878359,6,72.808345)">
            <path d="M948.57,611.71L948.57,626.163C948.57,631.47 948.336,635.362 947.867,637.837C947.398,640.313 946.396,642.625 944.859,644.775C943.323,646.924 941.35,648.511 938.941,649.533C936.533,650.556 933.766,651.068 930.641,651.068C927.151,651.068 924.195,650.63 921.773,649.756C919.352,648.881 917.47,647.562 916.129,645.798C914.788,644.034 913.831,641.899 913.258,639.394C912.685,636.889 912.398,633.131 912.398,628.12L912.398,613C912.398,607.515 912.919,603.231 913.961,600.147C915.003,597.064 916.878,594.588 919.586,592.72C922.294,590.852 925.758,589.919 929.977,589.919C933.518,589.919 936.559,590.519 939.098,591.72C941.637,592.92 943.596,594.484 944.977,596.411C946.357,598.339 947.301,600.325 947.809,602.371C948.316,604.416 948.57,607.529 948.57,611.71ZM932.789,607.263C932.789,604.239 932.646,602.334 932.359,601.548C932.073,600.762 931.461,600.369 930.523,600.369C929.586,600.369 928.961,600.762 928.648,601.548C928.336,602.334 928.18,604.239 928.18,607.263L928.18,633.901C928.18,636.688 928.336,638.504 928.648,639.349C928.961,640.194 929.573,640.617 930.484,640.617C931.422,640.617 932.04,640.231 932.34,639.46C932.639,638.69 932.789,637.029 932.789,634.48L932.789,607.263Z" style="fill-rule:nonzero;"/>
        </g>
        <g transform="matrix(1,0,0,0.878359,6,72.808345)">
            <path d="M952.359,578L957.32,578C961.799,578 965.146,578.474 967.359,579.423C969.573,580.372 971.018,581.795 971.695,583.692C972.372,585.59 972.711,589.563 972.711,595.611L972.711,632.389C972.711,638.467 972.372,642.44 971.695,644.308C971.018,646.176 969.599,647.591 967.438,648.555C965.276,649.519 961.904,650 957.32,650L952.359,650L952.359,640.617C954.677,640.617 956.148,640.483 956.773,640.216C957.398,639.95 957.835,639.409 958.082,638.593C958.329,637.778 958.453,635.725 958.453,632.434L958.453,595.566C958.453,592.038 958.297,589.896 957.984,589.14C957.672,588.384 957.197,587.902 956.559,587.695C955.921,587.487 954.521,587.384 952.359,587.384L952.359,578Z" style="fill-rule:nonzero;"/>
        </g>
        <g transform="matrix(1,0,0,0.878359,6,72.808345)">
            <path d="M413.695,779.33L413.695,865.73L396.398,865.73L386.133,826.452L386.133,865.73L369.633,865.73L369.633,779.33L386.133,779.33L397.195,818.234L397.195,779.33L413.695,779.33Z" style="fill-rule:nonzero;"/>
        </g>
        <g transform="matrix(1,0,0,0.878359,6,72.808345)">
            <path d="M463.898,819.782L463.898,837.126C463.898,843.494 463.617,848.164 463.055,851.134C462.492,854.105 461.289,856.88 459.445,859.46C457.602,862.039 455.234,863.942 452.344,865.17C449.453,866.397 446.133,867.011 442.383,867.011C438.195,867.011 434.648,866.486 431.742,865.437C428.836,864.387 426.578,862.804 424.969,860.687C423.359,858.57 422.211,856.009 421.523,853.002C420.836,849.996 420.492,845.486 420.492,839.474L420.492,821.329C420.492,814.747 421.117,809.606 422.367,805.906C423.617,802.206 425.867,799.235 429.117,796.994C432.367,794.753 436.523,793.632 441.586,793.632C445.836,793.632 449.484,794.352 452.531,795.793C455.578,797.234 457.93,799.111 459.586,801.423C461.242,803.736 462.375,806.12 462.984,808.575C463.594,811.029 463.898,814.765 463.898,819.782ZM444.961,814.445C444.961,810.816 444.789,808.53 444.445,807.587C444.102,806.645 443.367,806.173 442.242,806.173C441.117,806.173 440.367,806.645 439.992,807.587C439.617,808.53 439.43,810.816 439.43,814.445L439.43,846.411C439.43,849.756 439.617,851.935 439.992,852.949C440.367,853.963 441.102,854.47 442.195,854.47C443.32,854.47 444.062,854.007 444.422,853.082C444.781,852.157 444.961,850.165 444.961,847.105L444.961,814.445Z" style="fill-rule:nonzero;"/>
        </g>
        <g transform="matrix(1,0,0,0.878359,6,72.808345)">
            <path d="M507.023,785.467L507.023,796.621L512.133,796.621L512.133,807.827L507.023,807.827L507.023,845.718C507.023,850.378 507.234,852.976 507.656,853.509C508.078,854.043 509.836,854.31 512.93,854.31L512.93,865.73L505.289,865.73C500.977,865.73 497.898,865.526 496.055,865.116C494.211,864.707 492.586,863.765 491.18,862.288C489.773,860.812 488.898,859.122 488.555,857.218C488.211,855.315 488.039,850.841 488.039,843.797L488.039,807.827L483.961,807.827L483.961,796.621L488.039,796.621L488.039,785.467L507.023,785.467Z" style="fill-rule:nonzero;"/>
        </g>
        <g transform="matrix(1,0,0,0.878359,6,72.808345)">
            <path d="M559.195,831.576L534.68,831.576L534.68,846.892C534.68,850.094 534.883,852.157 535.289,853.082C535.695,854.007 536.477,854.47 537.633,854.47C539.07,854.47 540.031,853.856 540.516,852.629C541,851.401 541.242,849.026 541.242,845.504L541.242,836.165L559.195,836.165L559.195,841.395C559.195,845.771 558.953,849.133 558.469,851.481C557.984,853.829 556.852,856.338 555.07,859.006C553.289,861.674 551.031,863.676 548.297,865.01C545.562,866.344 542.133,867.011 538.008,867.011C534.008,867.011 530.477,866.353 527.414,865.036C524.352,863.72 521.969,861.914 520.266,859.62C518.562,857.325 517.383,854.799 516.727,852.042C516.07,849.284 515.742,845.273 515.742,840.008L515.742,819.355C515.742,813.164 516.477,808.281 517.945,804.706C519.414,801.13 521.82,798.39 525.164,796.487C528.508,794.584 532.352,793.632 536.695,793.632C542.008,793.632 546.391,794.779 549.844,797.074C553.297,799.369 555.719,802.411 557.109,806.2C558.5,809.989 559.195,815.317 559.195,822.183L559.195,831.576ZM540.211,820.048L540.211,814.872C540.211,811.207 540.039,808.841 539.695,807.774C539.352,806.707 538.648,806.173 537.586,806.173C536.273,806.173 535.461,806.627 535.148,807.534C534.836,808.441 534.68,810.887 534.68,814.872L534.68,820.048L540.211,820.048Z" style="fill-rule:nonzero;"/>
        </g>
        <g transform="matrix(1,0,0,0.878359,6,72.808345)">
            <path d="M582.305,822.343L564.539,822.343L564.539,817.594C564.539,812.115 565.094,807.89 566.203,804.919C567.312,801.948 569.539,799.324 572.883,797.047C576.227,794.77 580.57,793.632 585.914,793.632C592.32,793.632 597.148,794.922 600.398,797.501C603.648,800.08 605.602,803.247 606.258,807C606.914,810.754 607.242,818.483 607.242,830.188L607.242,865.73L588.82,865.73L588.82,859.433C587.664,861.959 586.172,863.853 584.344,865.116C582.516,866.379 580.336,867.011 577.805,867.011C574.492,867.011 571.453,865.953 568.688,863.836C565.922,861.719 564.539,857.085 564.539,849.934L564.539,844.117C564.539,838.816 565.273,835.205 566.742,833.283C568.211,831.362 571.852,829.121 577.664,826.559C583.883,823.784 587.211,821.916 587.648,820.956C588.086,819.995 588.305,818.038 588.305,815.085C588.305,811.385 588.062,808.975 587.578,807.854C587.094,806.733 586.289,806.173 585.164,806.173C583.883,806.173 583.086,806.645 582.773,807.587C582.461,808.53 582.305,810.976 582.305,814.925L582.305,822.343ZM588.305,832.056C585.273,834.582 583.516,836.699 583.031,838.407C582.547,840.114 582.305,842.569 582.305,845.771C582.305,849.436 582.516,851.802 582.938,852.869C583.359,853.936 584.195,854.47 585.445,854.47C586.633,854.47 587.406,854.052 587.766,853.216C588.125,852.38 588.305,850.183 588.305,846.625L588.305,832.056Z" style="fill-rule:nonzero;"/>
        </g>
        <g transform="matrix(1,0,0,0.878359,6,72.808345)">
            <path d="M632.461,794.913L632.133,801.637C633.602,798.969 635.352,796.967 637.383,795.633C639.414,794.299 641.727,793.632 644.32,793.632C649.383,793.632 653.367,796.3 656.273,801.637C657.867,798.969 659.664,796.967 661.664,795.633C663.664,794.299 665.883,793.632 668.32,793.632C671.539,793.632 674.203,794.521 676.312,796.3C678.422,798.079 679.773,800.258 680.367,802.838C680.961,805.417 681.258,809.606 681.258,815.406L681.258,865.73L662.883,865.73L662.883,819.568C662.883,813.52 662.703,809.775 662.344,808.334C661.984,806.894 661.148,806.173 659.836,806.173C658.492,806.173 657.625,806.885 657.234,808.308C656.844,809.731 656.648,813.484 656.648,819.568L656.648,865.73L638.273,865.73L638.273,820.742C638.273,813.805 638.125,809.642 637.828,808.254C637.531,806.867 636.711,806.173 635.367,806.173C634.523,806.173 633.805,806.538 633.211,807.267C632.617,807.996 632.289,808.886 632.227,809.935C632.164,810.985 632.133,813.217 632.133,816.633L632.133,865.73L613.758,865.73L613.758,794.913L632.461,794.913Z" style="fill-rule:nonzero;"/>
        </g>
        <g transform="matrix(1,0,0,0.878359,6,72.808345)">
            <path d="M726.445,817.54L709.664,817.54L709.664,813.698C709.664,810.425 709.5,808.352 709.172,807.481C708.844,806.609 708.023,806.173 706.711,806.173C705.648,806.173 704.852,806.573 704.32,807.374C703.789,808.174 703.523,809.375 703.523,810.976C703.523,813.146 703.656,814.738 703.922,815.752C704.188,816.766 704.984,817.878 706.312,819.088C707.641,820.297 710.367,822.059 714.492,824.371C719.992,827.431 723.602,830.313 725.32,833.016C727.039,835.72 727.898,839.652 727.898,844.81C727.898,850.574 727.242,854.923 725.93,857.859C724.617,860.794 722.422,863.053 719.344,864.636C716.266,866.219 712.555,867.011 708.211,867.011C703.398,867.011 699.281,866.157 695.859,864.449C692.438,862.742 690.086,860.429 688.805,857.512C687.523,854.594 686.883,850.183 686.883,844.277L686.883,840.861L703.664,840.861L703.664,845.344C703.664,849.151 703.875,851.624 704.297,852.762C704.719,853.901 705.555,854.47 706.805,854.47C708.148,854.47 709.086,854.087 709.617,853.322C710.148,852.558 710.414,850.948 710.414,848.493C710.414,845.113 710.07,842.996 709.383,842.142C708.664,841.288 704.992,838.762 698.367,834.564C692.805,831.006 689.414,827.778 688.195,824.878C686.977,821.979 686.367,818.536 686.367,814.552C686.367,808.895 687.023,804.723 688.336,802.037C689.648,799.351 691.875,797.279 695.016,795.82C698.156,794.361 701.805,793.632 705.961,793.632C710.086,793.632 713.594,794.228 716.484,795.42C719.375,796.612 721.594,798.186 723.141,800.143C724.688,802.099 725.625,803.914 725.953,805.586C726.281,807.258 726.445,809.873 726.445,813.431L726.445,817.54Z" style="fill-rule:nonzero;"/>
        </g>
        <g transform="matrix(1,0,0,0.878359,6,72.808345)">
            <rect x="731.273" y="848.119" width="14.297" height="17.611"/>
        </g>
        <g transform="matrix(1,0,0,0.878359,6,72.808345)">
            <path d="M407.555,912.639L407.555,999.04L390.258,999.04L379.992,959.762L379.992,999.04L363.492,999.04L363.492,912.639L379.992,912.639L391.055,951.544L391.055,912.639L407.555,912.639Z" style="fill-rule:nonzero;"/>
        </g>
        <g transform="matrix(1,0,0,0.878359,6,72.808345)">
            <path d="M457.758,953.091L457.758,970.435C457.758,976.804 457.477,981.473 456.914,984.444C456.352,987.415 455.148,990.19 453.305,992.769C451.461,995.349 449.094,997.252 446.203,998.479C443.312,999.707 439.992,1000.321 436.242,1000.321C432.055,1000.321 428.508,999.796 425.602,998.746C422.695,997.697 420.438,996.114 418.828,993.997C417.219,991.88 416.07,989.318 415.383,986.312C414.695,983.306 414.352,978.796 414.352,972.783L414.352,954.639C414.352,948.057 414.977,942.916 416.227,939.216C417.477,935.516 419.727,932.545 422.977,930.304C426.227,928.062 430.383,926.942 435.445,926.942C439.695,926.942 443.344,927.662 446.391,929.103C449.438,930.544 451.789,932.421 453.445,934.733C455.102,937.046 456.234,939.429 456.844,941.884C457.453,944.339 457.758,948.075 457.758,953.091ZM438.82,947.755C438.82,944.126 438.648,941.84 438.305,940.897C437.961,939.954 437.227,939.483 436.102,939.483C434.977,939.483 434.227,939.954 433.852,940.897C433.477,941.84 433.289,944.126 433.289,947.755L433.289,979.721C433.289,983.065 433.477,985.245 433.852,986.259C434.227,987.272 434.961,987.779 436.055,987.779C437.18,987.779 437.922,987.317 438.281,986.392C438.641,985.467 438.82,983.475 438.82,980.415L438.82,947.755Z" style="fill-rule:nonzero;"/>
        </g>
        <g transform="matrix(1,0,0,0.878359,6,72.808345)">
            <path d="M500.883,918.777L500.883,929.93L505.992,929.93L505.992,941.137L500.883,941.137L500.883,979.027C500.883,983.688 501.094,986.285 501.516,986.819C501.938,987.353 503.695,987.619 506.789,987.619L506.789,999.04L499.148,999.04C494.836,999.04 491.758,998.835 489.914,998.426C488.07,998.017 486.445,997.074 485.039,995.598C483.633,994.121 482.758,992.431 482.414,990.528C482.07,988.624 481.898,984.151 481.898,977.106L481.898,941.137L477.82,941.137L477.82,929.93L481.898,929.93L481.898,918.777L500.883,918.777Z" style="fill-rule:nonzero;"/>
        </g>
        <g transform="matrix(1,0,0,0.878359,6,72.808345)">
            <path d="M529.664,912.639L529.664,923.9L510.164,923.9L510.164,912.639L529.664,912.639ZM529.664,928.222L529.664,999.04L510.164,999.04L510.164,928.222L529.664,928.222Z" style="fill-rule:nonzero;"/>
        </g>
        <g transform="matrix(1,0,0,0.878359,6,72.808345)">
            <path d="M555.164,928.222L554.836,934.947C556.305,932.278 558.055,930.277 560.086,928.943C562.117,927.609 564.43,926.942 567.023,926.942C572.086,926.942 576.07,929.61 578.977,934.947C580.57,932.278 582.367,930.277 584.367,928.943C586.367,927.609 588.586,926.942 591.023,926.942C594.242,926.942 596.906,927.831 599.016,929.61C601.125,931.389 602.477,933.568 603.07,936.147C603.664,938.727 603.961,942.916 603.961,948.715L603.961,999.04L585.586,999.04L585.586,952.878C585.586,946.83 585.406,943.085 585.047,941.644C584.688,940.203 583.852,939.483 582.539,939.483C581.195,939.483 580.328,940.194 579.938,941.617C579.547,943.041 579.352,946.794 579.352,952.878L579.352,999.04L560.977,999.04L560.977,954.052C560.977,947.114 560.828,942.952 560.531,941.564C560.234,940.177 559.414,939.483 558.07,939.483C557.227,939.483 556.508,939.847 555.914,940.577C555.32,941.306 554.992,942.196 554.93,943.245C554.867,944.295 554.836,946.527 554.836,949.943L554.836,999.04L536.461,999.04L536.461,928.222L555.164,928.222Z" style="fill-rule:nonzero;"/>
        </g>
        <g transform="matrix(1,0,0,0.878359,6,72.808345)">
            <path d="M653.367,964.885L628.852,964.885L628.852,980.201C628.852,983.403 629.055,985.467 629.461,986.392C629.867,987.317 630.648,987.779 631.805,987.779C633.242,987.779 634.203,987.166 634.688,985.938C635.172,984.711 635.414,982.336 635.414,978.814L635.414,969.475L653.367,969.475L653.367,974.705C653.367,979.081 653.125,982.443 652.641,984.791C652.156,987.139 651.023,989.647 649.242,992.316C647.461,994.984 645.203,996.985 642.469,998.319C639.734,999.654 636.305,1000.321 632.18,1000.321C628.18,1000.321 624.648,999.662 621.586,998.346C618.523,997.03 616.141,995.224 614.438,992.929C612.734,990.635 611.555,988.109 610.898,985.351C610.242,982.594 609.914,978.583 609.914,973.317L609.914,952.664C609.914,946.474 610.648,941.591 612.117,938.015C613.586,934.44 615.992,931.7 619.336,929.797C622.68,927.893 626.523,926.942 630.867,926.942C636.18,926.942 640.562,928.089 644.016,930.384C647.469,932.679 649.891,935.72 651.281,939.509C652.672,943.298 653.367,948.626 653.367,955.493L653.367,964.885ZM634.383,953.358L634.383,948.181C634.383,944.517 634.211,942.151 633.867,941.084C633.523,940.016 632.82,939.483 631.758,939.483C630.445,939.483 629.633,939.936 629.32,940.844C629.008,941.751 628.852,944.197 628.852,948.181L628.852,953.358L634.383,953.358Z" style="fill-rule:nonzero;"/>
        </g>
        <g transform="matrix(1,0,0,0.878359,6,72.808345)">
            <path d="M678.492,928.222L677.742,937.508C680.492,930.855 684.477,927.333 689.695,926.942L689.695,951.864C686.227,951.864 683.68,952.397 682.055,953.465C680.43,954.532 679.43,956.017 679.055,957.921C678.68,959.824 678.492,964.209 678.492,971.076L678.492,999.04L659.555,999.04L659.555,928.222L678.492,928.222Z" style="fill-rule:nonzero;"/>
        </g>
        <g transform="matrix(1,0,0,0.878359,6,72.808345)">
            <path d="M732.586,950.85L715.805,950.85L715.805,947.007C715.805,943.734 715.641,941.662 715.312,940.79C714.984,939.919 714.164,939.483 712.852,939.483C711.789,939.483 710.992,939.883 710.461,940.683C709.93,941.484 709.664,942.685 709.664,944.286C709.664,946.456 709.797,948.048 710.062,949.062C710.328,950.076 711.125,951.188 712.453,952.397C713.781,953.607 716.508,955.368 720.633,957.681C726.133,960.74 729.742,963.622 731.461,966.326C733.18,969.03 734.039,972.961 734.039,978.12C734.039,983.884 733.383,988.233 732.07,991.168C730.758,994.103 728.562,996.363 725.484,997.946C722.406,999.529 718.695,1000.321 714.352,1000.321C709.539,1000.321 705.422,999.467 702,997.759C698.578,996.051 696.227,993.739 694.945,990.821C693.664,987.904 693.023,983.492 693.023,977.586L693.023,974.171L709.805,974.171L709.805,978.654C709.805,982.461 710.016,984.933 710.438,986.072C710.859,987.21 711.695,987.779 712.945,987.779C714.289,987.779 715.227,987.397 715.758,986.632C716.289,985.867 716.555,984.257 716.555,981.802C716.555,978.423 716.211,976.306 715.523,975.452C714.805,974.598 711.133,972.072 704.508,967.874C698.945,964.316 695.555,961.087 694.336,958.188C693.117,955.288 692.508,951.846 692.508,947.861C692.508,942.204 693.164,938.033 694.477,935.347C695.789,932.661 698.016,930.588 701.156,929.13C704.297,927.671 707.945,926.942 712.102,926.942C716.227,926.942 719.734,927.538 722.625,928.729C725.516,929.921 727.734,931.496 729.281,933.452C730.828,935.409 731.766,937.224 732.094,938.896C732.422,940.568 732.586,943.183 732.586,946.741L732.586,950.85Z" style="fill-rule:nonzero;"/>
        </g>
        <g transform="matrix(1,0,0,0.878359,6,72.808345)">
            <rect x="737.414" y="981.429" width="14.297" height="17.611"/>
        </g>
        <g transform="matrix(1,0,0,0.878359,6,72.808345)">
            <path d="M401.461,1045.949L401.461,1132.349L384.164,1132.349L373.898,1093.072L373.898,1132.349L357.398,1132.349L357.398,1045.949L373.898,1045.949L384.961,1084.853L384.961,1045.949L401.461,1045.949Z" style="fill-rule:nonzero;"/>
        </g>
        <g transform="matrix(1,0,0,0.878359,6,72.808345)">
            <path d="M451.664,1086.401L451.664,1103.745C451.664,1110.113 451.383,1114.783 450.82,1117.754C450.258,1120.724 449.055,1123.499 447.211,1126.079C445.367,1128.658 443,1130.562 440.109,1131.789C437.219,1133.017 433.898,1133.63 430.148,1133.63C425.961,1133.63 422.414,1133.105 419.508,1132.056C416.602,1131.006 414.344,1129.423 412.734,1127.306C411.125,1125.189 409.977,1122.628 409.289,1119.622C408.602,1116.615 408.258,1112.106 408.258,1106.093L408.258,1087.948C408.258,1081.367 408.883,1076.226 410.133,1072.526C411.383,1068.825 413.633,1065.855 416.883,1063.613C420.133,1061.372 424.289,1060.251 429.352,1060.251C433.602,1060.251 437.25,1060.972 440.297,1062.413C443.344,1063.853 445.695,1065.73 447.352,1068.043C449.008,1070.355 450.141,1072.739 450.75,1075.194C451.359,1077.649 451.664,1081.384 451.664,1086.401ZM432.727,1081.064C432.727,1077.435 432.555,1075.149 432.211,1074.207C431.867,1073.264 431.133,1072.792 430.008,1072.792C428.883,1072.792 428.133,1073.264 427.758,1074.207C427.383,1075.149 427.195,1077.435 427.195,1081.064L427.195,1113.031C427.195,1116.375 427.383,1118.554 427.758,1119.568C428.133,1120.582 428.867,1121.089 429.961,1121.089C431.086,1121.089 431.828,1120.627 432.188,1119.702C432.547,1118.777 432.727,1116.784 432.727,1113.725L432.727,1081.064Z" style="fill-rule:nonzero;"/>
        </g>
        <g transform="matrix(1,0,0,0.878359,6,72.808345)">
            <path d="M513.492,1084.159L496.711,1084.159L496.711,1080.317C496.711,1077.044 496.547,1074.972 496.219,1074.1C495.891,1073.228 495.07,1072.792 493.758,1072.792C492.695,1072.792 491.898,1073.193 491.367,1073.993C490.836,1074.794 490.57,1075.994 490.57,1077.595C490.57,1079.766 490.703,1081.358 490.969,1082.372C491.234,1083.386 492.031,1084.497 493.359,1085.707C494.688,1086.917 497.414,1088.678 501.539,1090.99C507.039,1094.05 510.648,1096.932 512.367,1099.636C514.086,1102.34 514.945,1106.271 514.945,1111.43C514.945,1117.193 514.289,1121.543 512.977,1124.478C511.664,1127.413 509.469,1129.672 506.391,1131.255C503.312,1132.839 499.602,1133.63 495.258,1133.63C490.445,1133.63 486.328,1132.776 482.906,1131.069C479.484,1129.361 477.133,1127.048 475.852,1124.131C474.57,1121.214 473.93,1116.802 473.93,1110.896L473.93,1107.481L490.711,1107.481L490.711,1111.963C490.711,1115.77 490.922,1118.243 491.344,1119.381C491.766,1120.52 492.602,1121.089 493.852,1121.089C495.195,1121.089 496.133,1120.707 496.664,1119.942C497.195,1119.177 497.461,1117.567 497.461,1115.112C497.461,1111.732 497.117,1109.615 496.43,1108.761C495.711,1107.908 492.039,1105.382 485.414,1101.183C479.852,1097.626 476.461,1094.397 475.242,1091.497C474.023,1088.598 473.414,1085.156 473.414,1081.171C473.414,1075.514 474.07,1071.343 475.383,1068.656C476.695,1065.97 478.922,1063.898 482.062,1062.439C485.203,1060.981 488.852,1060.251 493.008,1060.251C497.133,1060.251 500.641,1060.847 503.531,1062.039C506.422,1063.231 508.641,1064.805 510.188,1066.762C511.734,1068.719 512.672,1070.533 513,1072.205C513.328,1073.877 513.492,1076.492 513.492,1080.05L513.492,1084.159Z" style="fill-rule:nonzero;"/>
        </g>
        <g transform="matrix(1,0,0,0.878359,6,72.808345)">
            <path d="M561.867,1088.269L544.008,1088.269L544.008,1080.104C544.008,1077.257 543.805,1075.327 543.398,1074.313C542.992,1073.299 542.242,1072.792 541.148,1072.792C540.055,1072.792 539.32,1073.237 538.945,1074.127C538.57,1075.016 538.383,1077.008 538.383,1080.104L538.383,1113.511C538.383,1116.037 538.664,1117.932 539.227,1119.195C539.789,1120.458 540.617,1121.089 541.711,1121.089C542.992,1121.089 543.859,1120.431 544.312,1119.115C544.766,1117.798 544.992,1115.308 544.992,1111.643L544.992,1103.211L561.867,1103.211C561.836,1108.868 561.656,1113.111 561.328,1115.939C561,1118.768 559.953,1121.667 558.188,1124.638C556.422,1127.609 554.117,1129.85 551.273,1131.362C548.43,1132.874 544.914,1133.63 540.727,1133.63C535.383,1133.63 531.148,1132.59 528.023,1130.508C524.898,1128.427 522.688,1125.51 521.391,1121.756C520.094,1118.003 519.445,1112.675 519.445,1105.773L519.445,1085.654C519.445,1079.641 519.977,1075.105 521.039,1072.045C522.102,1068.986 524.367,1066.255 527.836,1063.853C531.305,1061.452 535.523,1060.251 540.492,1060.251C545.43,1060.251 549.648,1061.443 553.148,1063.827C556.648,1066.211 558.977,1069.217 560.133,1072.846C561.289,1076.475 561.867,1081.616 561.867,1088.269Z" style="fill-rule:nonzero;"/>
        </g>
        <g transform="matrix(1,0,0,0.878359,6,72.808345)">
            <path d="M610.336,1086.401L610.336,1103.745C610.336,1110.113 610.055,1114.783 609.492,1117.754C608.93,1120.724 607.727,1123.499 605.883,1126.079C604.039,1128.658 601.672,1130.562 598.781,1131.789C595.891,1133.017 592.57,1133.63 588.82,1133.63C584.633,1133.63 581.086,1133.105 578.18,1132.056C575.273,1131.006 573.016,1129.423 571.406,1127.306C569.797,1125.189 568.648,1122.628 567.961,1119.622C567.273,1116.615 566.93,1112.106 566.93,1106.093L566.93,1087.948C566.93,1081.367 567.555,1076.226 568.805,1072.526C570.055,1068.825 572.305,1065.855 575.555,1063.613C578.805,1061.372 582.961,1060.251 588.023,1060.251C592.273,1060.251 595.922,1060.972 598.969,1062.413C602.016,1063.853 604.367,1065.73 606.023,1068.043C607.68,1070.355 608.812,1072.739 609.422,1075.194C610.031,1077.649 610.336,1081.384 610.336,1086.401ZM591.398,1081.064C591.398,1077.435 591.227,1075.149 590.883,1074.207C590.539,1073.264 589.805,1072.792 588.68,1072.792C587.555,1072.792 586.805,1073.264 586.43,1074.207C586.055,1075.149 585.867,1077.435 585.867,1081.064L585.867,1113.031C585.867,1116.375 586.055,1118.554 586.43,1119.568C586.805,1120.582 587.539,1121.089 588.633,1121.089C589.758,1121.089 590.5,1120.627 590.859,1119.702C591.219,1118.777 591.398,1116.784 591.398,1113.725L591.398,1081.064Z" style="fill-rule:nonzero;"/>
        </g>
        <g transform="matrix(1,0,0,0.878359,6,72.808345)">
            <path d="M635.508,1061.532L634.758,1070.818C637.508,1064.165 641.492,1060.643 646.711,1060.251L646.711,1085.173C643.242,1085.173 640.695,1085.707 639.07,1086.774C637.445,1087.842 636.445,1089.327 636.07,1091.231C635.695,1093.134 635.508,1097.519 635.508,1104.385L635.508,1132.349L616.57,1132.349L616.57,1061.532L635.508,1061.532Z" style="fill-rule:nonzero;"/>
        </g>
        <g transform="matrix(1,0,0,0.878359,6,72.808345)">
            <path d="M693.82,1098.195L669.305,1098.195L669.305,1113.511C669.305,1116.713 669.508,1118.777 669.914,1119.702C670.32,1120.627 671.102,1121.089 672.258,1121.089C673.695,1121.089 674.656,1120.475 675.141,1119.248C675.625,1118.021 675.867,1115.646 675.867,1112.124L675.867,1102.784L693.82,1102.784L693.82,1108.014C693.82,1112.39 693.578,1115.752 693.094,1118.101C692.609,1120.449 691.477,1122.957 689.695,1125.625C687.914,1128.294 685.656,1130.295 682.922,1131.629C680.188,1132.963 676.758,1133.63 672.633,1133.63C668.633,1133.63 665.102,1132.972 662.039,1131.656C658.977,1130.339 656.594,1128.534 654.891,1126.239C653.188,1123.944 652.008,1121.418 651.352,1118.661C650.695,1115.904 650.367,1111.892 650.367,1106.627L650.367,1085.974C650.367,1079.783 651.102,1074.9 652.57,1071.325C654.039,1067.749 656.445,1065.01 659.789,1063.106C663.133,1061.203 666.977,1060.251 671.32,1060.251C676.633,1060.251 681.016,1061.399 684.469,1063.693C687.922,1065.988 690.344,1069.03 691.734,1072.819C693.125,1076.608 693.82,1081.936 693.82,1088.802L693.82,1098.195ZM674.836,1086.668L674.836,1081.491C674.836,1077.827 674.664,1075.461 674.32,1074.393C673.977,1073.326 673.273,1072.792 672.211,1072.792C670.898,1072.792 670.086,1073.246 669.773,1074.153C669.461,1075.06 669.305,1077.506 669.305,1081.491L669.305,1086.668L674.836,1086.668Z" style="fill-rule:nonzero;"/>
        </g>
        <g transform="matrix(1,0,0,0.878359,6,72.808345)">
            <path d="M738.68,1084.159L721.898,1084.159L721.898,1080.317C721.898,1077.044 721.734,1074.972 721.406,1074.1C721.078,1073.228 720.258,1072.792 718.945,1072.792C717.883,1072.792 717.086,1073.193 716.555,1073.993C716.023,1074.794 715.758,1075.994 715.758,1077.595C715.758,1079.766 715.891,1081.358 716.156,1082.372C716.422,1083.386 717.219,1084.497 718.547,1085.707C719.875,1086.917 722.602,1088.678 726.727,1090.99C732.227,1094.05 735.836,1096.932 737.555,1099.636C739.273,1102.34 740.133,1106.271 740.133,1111.43C740.133,1117.193 739.477,1121.543 738.164,1124.478C736.852,1127.413 734.656,1129.672 731.578,1131.255C728.5,1132.839 724.789,1133.63 720.445,1133.63C715.633,1133.63 711.516,1132.776 708.094,1131.069C704.672,1129.361 702.32,1127.048 701.039,1124.131C699.758,1121.214 699.117,1116.802 699.117,1110.896L699.117,1107.481L715.898,1107.481L715.898,1111.963C715.898,1115.77 716.109,1118.243 716.531,1119.381C716.953,1120.52 717.789,1121.089 719.039,1121.089C720.383,1121.089 721.32,1120.707 721.852,1119.942C722.383,1119.177 722.648,1117.567 722.648,1115.112C722.648,1111.732 722.305,1109.615 721.617,1108.761C720.898,1107.908 717.227,1105.382 710.602,1101.183C705.039,1097.626 701.648,1094.397 700.43,1091.497C699.211,1088.598 698.602,1085.156 698.602,1081.171C698.602,1075.514 699.258,1071.343 700.57,1068.656C701.883,1065.97 704.109,1063.898 707.25,1062.439C710.391,1060.981 714.039,1060.251 718.195,1060.251C722.32,1060.251 725.828,1060.847 728.719,1062.039C731.609,1063.231 733.828,1064.805 735.375,1066.762C736.922,1068.719 737.859,1070.533 738.188,1072.205C738.516,1073.877 738.68,1076.492 738.68,1080.05L738.68,1084.159Z" style="fill-rule:nonzero;"/>
        </g>
        <g transform="matrix(1,0,0,0.878359,6,72.808345)">
            <rect x="743.508" y="1114.738" width="14.297" height="17.611"/>
        </g>
        <g transform="matrix(1,0,0,0.878359,6,72.808345)">
            <path d="M209.906,1249.992L209.906,1326.982C209.906,1338.509 209.802,1345.921 209.594,1349.218C209.385,1352.515 208.438,1355.491 206.75,1358.148C205.062,1360.804 202.771,1362.642 199.875,1363.662C196.979,1364.682 192.615,1365.192 186.781,1365.192L173.594,1365.192L173.594,1345.055C175.177,1345.197 176.323,1345.269 177.031,1345.269C178.906,1345.269 180.385,1344.747 181.469,1343.703C182.552,1342.66 183.177,1341.379 183.344,1339.861C183.51,1338.343 183.594,1335.402 183.594,1331.038L183.594,1249.992L209.906,1249.992Z" style="fill-rule:nonzero;"/>
        </g>
        <g transform="matrix(1,0,0,0.878359,6,72.808345)">
            <path d="M279.906,1249.992L279.906,1326.982C279.906,1335.71 279.656,1341.841 279.156,1345.375C278.656,1348.909 277.177,1352.538 274.719,1356.262C272.26,1359.986 269.021,1362.808 265,1364.73C260.979,1366.651 256.24,1367.611 250.781,1367.611C244.74,1367.611 239.406,1366.473 234.781,1364.196C230.156,1361.919 226.698,1358.954 224.406,1355.302C222.115,1351.649 220.76,1347.795 220.344,1343.739C219.927,1339.683 219.719,1331.156 219.719,1318.158L219.719,1249.992L246.031,1249.992L246.031,1336.374C246.031,1341.403 246.271,1344.616 246.75,1346.016C247.229,1347.415 248.198,1348.115 249.656,1348.115C251.323,1348.115 252.396,1347.344 252.875,1345.802C253.354,1344.261 253.594,1340.62 253.594,1334.88L253.594,1249.992L279.906,1249.992Z" style="fill-rule:nonzero;"/>
        </g>
        <g transform="matrix(1,0,0,0.878359,6,72.808345)">
            <path d="M345.844,1284.858L321.406,1284.858L321.406,1276.319C321.406,1272.334 321.094,1269.796 320.469,1268.705C319.844,1267.614 318.802,1267.069 317.344,1267.069C315.76,1267.069 314.562,1267.804 313.75,1269.275C312.938,1270.745 312.531,1272.975 312.531,1275.963C312.531,1279.806 312.99,1282.699 313.906,1284.644C314.781,1286.589 317.26,1288.937 321.344,1291.689C333.052,1299.611 340.427,1306.109 343.469,1311.185C346.51,1316.261 348.031,1324.444 348.031,1335.734C348.031,1343.94 347.188,1349.989 345.5,1353.878C343.812,1357.768 340.552,1361.03 335.719,1363.662C330.885,1366.295 325.26,1367.611 318.844,1367.611C311.802,1367.611 305.792,1366.093 300.812,1363.057C295.833,1360.022 292.573,1356.155 291.031,1351.459C289.49,1346.763 288.719,1340.098 288.719,1331.464L288.719,1323.922L313.156,1323.922L313.156,1337.94C313.156,1342.256 313.5,1345.031 314.188,1346.265C314.875,1347.498 316.094,1348.115 317.844,1348.115C319.594,1348.115 320.896,1347.332 321.75,1345.767C322.604,1344.201 323.031,1341.877 323.031,1338.793C323.031,1332.01 322.219,1327.575 320.594,1325.487C318.927,1323.4 314.823,1319.914 308.281,1315.028C301.74,1310.094 297.406,1306.513 295.281,1304.283C293.156,1302.054 291.396,1298.97 290,1295.033C288.604,1291.096 287.906,1286.067 287.906,1279.948C287.906,1271.125 288.896,1264.673 290.875,1260.594C292.854,1256.514 296.052,1253.324 300.469,1251.023C304.885,1248.723 310.219,1247.572 316.469,1247.572C323.302,1247.572 329.125,1248.829 333.938,1251.343C338.75,1253.858 341.938,1257.024 343.5,1260.843C345.062,1264.661 345.844,1271.148 345.844,1280.304L345.844,1284.858Z" style="fill-rule:nonzero;"/>
        </g>
        <g transform="matrix(1,0,0,0.878359,6,72.808345)">
            <path d="M409.281,1249.992L409.281,1273.046L393.656,1273.046L393.656,1365.192L367.344,1365.192L367.344,1273.046L351.781,1273.046L351.781,1249.992L409.281,1249.992Z" style="fill-rule:nonzero;"/>
        </g>
        <g transform="matrix(1,0,0,0.878359,6,72.808345)">
            <path d="M437.844,1249.992L464.344,1249.992C471.51,1249.992 477.021,1250.632 480.875,1251.913C484.729,1253.194 487.625,1255.044 489.562,1257.463C491.5,1259.882 492.812,1262.811 493.5,1266.251C494.188,1269.69 494.531,1275.015 494.531,1282.225L494.531,1292.258C494.531,1299.611 493.865,1304.971 492.531,1308.339C491.198,1311.707 488.75,1314.292 485.188,1316.095C481.625,1317.898 476.969,1318.799 471.219,1318.799L464.156,1318.799L464.156,1365.192L437.844,1365.192L437.844,1249.992ZM464.156,1269.702L464.156,1299.018C464.906,1299.065 465.552,1299.089 466.094,1299.089C468.51,1299.089 470.188,1298.413 471.125,1297.061C472.062,1295.709 472.531,1292.898 472.531,1288.629L472.531,1279.165C472.531,1275.228 471.99,1272.666 470.906,1271.48C469.823,1270.295 467.573,1269.702 464.156,1269.702Z" style="fill-rule:nonzero;"/>
        </g>
        <g transform="matrix(1,0,0,0.878359,6,72.808345)">
            <path d="M502.094,1249.992L520.719,1249.992C533.135,1249.992 541.542,1250.537 545.938,1251.628C550.333,1252.719 553.917,1255.506 556.688,1259.989C559.458,1264.472 560.844,1271.623 560.844,1281.442C560.844,1290.408 559.865,1296.432 557.906,1299.516C555.948,1302.599 552.094,1304.449 546.344,1305.066C551.552,1306.536 555.052,1308.505 556.844,1310.972C558.635,1313.438 559.75,1315.704 560.188,1317.767C560.625,1319.831 560.844,1325.511 560.844,1334.809L560.844,1365.192L536.406,1365.192L536.406,1326.911C536.406,1320.744 535.979,1316.925 535.125,1315.455C534.271,1313.984 532.031,1313.249 528.406,1313.249L528.406,1365.192L502.094,1365.192L502.094,1249.992ZM528.406,1269.702L528.406,1295.318C531.365,1295.318 533.438,1294.855 534.625,1293.93C535.812,1293.005 536.406,1290.005 536.406,1284.929L536.406,1278.596C536.406,1274.943 535.833,1272.548 534.688,1271.409C533.542,1270.271 531.448,1269.702 528.406,1269.702Z" style="fill-rule:nonzero;"/>
        </g>
        <g transform="matrix(1,0,0,0.878359,6,72.808345)">
            <path d="M631.156,1317.447C631.156,1329.021 630.917,1337.216 630.438,1342.031C629.958,1346.846 628.458,1351.246 625.938,1355.23C623.417,1359.215 620.01,1362.275 615.719,1364.409C611.427,1366.544 606.427,1367.611 600.719,1367.611C595.302,1367.611 590.438,1366.603 586.125,1364.587C581.812,1362.571 578.344,1359.547 575.719,1355.515C573.094,1351.483 571.531,1347.095 571.031,1342.351C570.531,1337.608 570.281,1329.306 570.281,1317.447L570.281,1297.737C570.281,1286.162 570.521,1277.967 571,1273.153C571.479,1268.338 572.979,1263.938 575.5,1259.953C578.021,1255.969 581.427,1252.909 585.719,1250.774C590.01,1248.64 595.01,1247.572 600.719,1247.572C606.135,1247.572 611,1248.58 615.312,1250.596C619.625,1252.612 623.094,1255.637 625.719,1259.669C628.344,1263.701 629.906,1268.089 630.406,1272.832C630.906,1277.576 631.156,1285.878 631.156,1297.737L631.156,1317.447ZM604.844,1279.592C604.844,1274.232 604.583,1270.804 604.062,1269.31C603.542,1267.816 602.469,1267.069 600.844,1267.069C599.469,1267.069 598.417,1267.674 597.688,1268.883C596.958,1270.093 596.594,1273.663 596.594,1279.592L596.594,1333.386C596.594,1340.074 596.833,1344.201 597.312,1345.767C597.792,1347.332 598.906,1348.115 600.656,1348.115C602.448,1348.115 603.594,1347.214 604.094,1345.411C604.594,1343.608 604.844,1339.315 604.844,1332.532L604.844,1279.592Z" style="fill-rule:nonzero;"/>
        </g>
        <g transform="matrix(1,0,0,0.878359,6,72.808345)">
            <path d="M722.156,1249.992L722.156,1365.192L699.156,1365.192L699.156,1287.419L689.969,1365.192L673.656,1365.192L663.969,1289.198L663.969,1365.192L640.969,1365.192L640.969,1249.992L675.031,1249.992C676.031,1256.917 677.094,1265.076 678.219,1274.469L681.844,1303.785L687.844,1249.992L722.156,1249.992Z" style="fill-rule:nonzero;"/>
        </g>
        <g transform="matrix(1,0,0,0.878359,6,72.808345)">
            <path d="M732.719,1249.992L759.219,1249.992C766.385,1249.992 771.896,1250.632 775.75,1251.913C779.604,1253.194 782.5,1255.044 784.438,1257.463C786.375,1259.882 787.688,1262.811 788.375,1266.251C789.062,1269.69 789.406,1275.015 789.406,1282.225L789.406,1292.258C789.406,1299.611 788.74,1304.971 787.406,1308.339C786.073,1311.707 783.625,1314.292 780.062,1316.095C776.5,1317.898 771.844,1318.799 766.094,1318.799L759.031,1318.799L759.031,1365.192L732.719,1365.192L732.719,1249.992ZM759.031,1269.702L759.031,1299.018C759.781,1299.065 760.427,1299.089 760.969,1299.089C763.385,1299.089 765.062,1298.413 766,1297.061C766.938,1295.709 767.406,1292.898 767.406,1288.629L767.406,1279.165C767.406,1275.228 766.865,1272.666 765.781,1271.48C764.698,1270.295 762.448,1269.702 759.031,1269.702Z" style="fill-rule:nonzero;"/>
        </g>
        <g transform="matrix(1,0,0,0.878359,6,72.808345)">
            <path d="M849.969,1249.992L849.969,1273.046L834.344,1273.046L834.344,1365.192L808.031,1365.192L808.031,1273.046L792.469,1273.046L792.469,1249.992L849.969,1249.992Z" style="fill-rule:nonzero;"/>
        </g>
        <g transform="matrix(1,0,0,0.878359,6,72.808345)">
            <path d="M911.719,1284.858L887.281,1284.858L887.281,1276.319C887.281,1272.334 886.969,1269.796 886.344,1268.705C885.719,1267.614 884.677,1267.069 883.219,1267.069C881.635,1267.069 880.438,1267.804 879.625,1269.275C878.812,1270.745 878.406,1272.975 878.406,1275.963C878.406,1279.806 878.865,1282.699 879.781,1284.644C880.656,1286.589 883.135,1288.937 887.219,1291.689C898.927,1299.611 906.302,1306.109 909.344,1311.185C912.385,1316.261 913.906,1324.444 913.906,1335.734C913.906,1343.94 913.062,1349.989 911.375,1353.878C909.688,1357.768 906.427,1361.03 901.594,1363.662C896.76,1366.295 891.135,1367.611 884.719,1367.611C877.677,1367.611 871.667,1366.093 866.688,1363.057C861.708,1360.022 858.448,1356.155 856.906,1351.459C855.365,1346.763 854.594,1340.098 854.594,1331.464L854.594,1323.922L879.031,1323.922L879.031,1337.94C879.031,1342.256 879.375,1345.031 880.062,1346.265C880.75,1347.498 881.969,1348.115 883.719,1348.115C885.469,1348.115 886.771,1347.332 887.625,1345.767C888.479,1344.201 888.906,1341.877 888.906,1338.793C888.906,1332.01 888.094,1327.575 886.469,1325.487C884.802,1323.4 880.698,1319.914 874.156,1315.028C867.615,1310.094 863.281,1306.513 861.156,1304.283C859.031,1302.054 857.271,1298.97 855.875,1295.033C854.479,1291.096 853.781,1286.067 853.781,1279.948C853.781,1271.125 854.771,1264.673 856.75,1260.594C858.729,1256.514 861.927,1253.324 866.344,1251.023C870.76,1248.723 876.094,1247.572 882.344,1247.572C889.177,1247.572 895,1248.829 899.812,1251.343C904.625,1253.858 907.812,1257.024 909.375,1260.843C910.938,1264.661 911.719,1271.148 911.719,1280.304L911.719,1284.858Z" style="fill-rule:nonzero;"/>
        </g>
        <g transform="matrix(1,0,0,0.878359,6,72.808345)">
            <rect x="919.156" y="1341.711" width="19.062" height="23.481"/>
        </g>
    </g>
</svg>
