<?xml version="1.0" encoding="UTF-8" standalone="no"?>
<!DOCTYPE svg PUBLIC "-//W3C//DTD SVG 1.1//EN" "http://www.w3.org/Graphics/SVG/1.1/DTD/svg11.dtd">
<svg width="100%" height="100%" viewBox="0 0 2450 540" version="1.1" xmlns="http://www.w3.org/2000/svg" xmlns:xlink="http://www.w3.org/1999/xlink" xml:space="preserve" xmlns:serif="http://www.serif.com/" style="fill-rule:evenodd;clip-rule:evenodd;stroke-linejoin:bevel;stroke-miterlimit:2;">
    <g transform="matrix(1,0,0,1,-62.958097,0)">
        <g transform="matrix(0.938077,0,0,0.683172,80.5,153.08724)">
            <g transform="matrix(1,0,0,1.021685,-0,0)">
                <path d="M196.997,0L255.537,540L150.845,540L145.744,442.94L109.065,442.94L102.992,540L-2.915,540L49.067,0L196.997,0ZM142.829,347.214C137.647,286.065 132.465,210.574 127.283,120.741C116.919,223.916 110.441,299.407 107.85,347.214L142.829,347.214Z" style="fill:rgb(204,0,0);fill-rule:nonzero;stroke:black;stroke-width:22.58px;"/>
            </g>
            <g transform="matrix(1,0,0,1.021685,-0,0)">
                <path d="M588.561,0L588.561,540L499.172,540L499.172,175.442L463.465,540L400.066,540L362.416,183.78L362.416,540L273.026,540L273.026,0L405.41,0C409.297,32.464 413.426,70.71 417.798,114.737L431.887,252.156L455.206,0L588.561,0Z" style="fill:rgb(204,0,0);fill-rule:nonzero;stroke:black;stroke-width:22.58px;"/>
            </g>
            <g transform="matrix(1,0,0,1.021685,-0,0)">
                <rect x="629.613" y="0" width="102.263" height="540" style="fill:rgb(204,0,0);fill-rule:nonzero;stroke:black;stroke-width:22.58px;"/>
            </g>
            <g transform="matrix(1,0,0,1.021685,-0,0)">
                <path d="M978.911,0L978.911,108.067L918.185,108.067L918.185,540L815.922,540L815.922,108.067L755.438,108.067L755.438,0L978.911,0Z" style="fill:rgb(204,0,0);fill-rule:nonzero;stroke:black;stroke-width:22.58px;"/>
            </g>
            <g transform="matrix(1,0,0,1.021685,-0,0)">
                <path d="M1232.505,0L1157.933,344.546L1157.933,540L1063.2,540L1063.2,344.546L991.3,0L1085.304,0C1100.041,105.176 1108.299,175.998 1110.081,212.464C1115.749,154.873 1125.222,84.052 1138.501,0L1232.505,0Z" style="fill:rgb(204,0,0);fill-rule:nonzero;stroke:black;stroke-width:22.58px;"/>
            </g>
            <g transform="matrix(1,0,0,1.021685,-0,0)">
                <path d="M1543.668,0L1543.668,108.067L1482.942,108.067L1482.942,540L1380.678,540L1380.678,108.067L1320.195,108.067L1320.195,0L1543.668,0Z" style="fill:rgb(204,0,0);fill-rule:nonzero;stroke:black;stroke-width:22.58px;"/>
            </g>
            <g transform="matrix(1,0,0,1.021685,-0,0)">
                <path d="M1723.662,0L1782.202,540L1677.509,540L1672.408,442.94L1635.73,442.94L1629.657,540L1523.75,540L1575.732,0L1723.662,0ZM1669.493,347.214C1664.311,286.065 1659.129,210.574 1653.947,120.741C1643.583,223.916 1637.106,299.407 1634.515,347.214L1669.493,347.214Z" style="fill:rgb(204,0,0);fill-rule:nonzero;stroke:black;stroke-width:22.58px;"/>
            </g>
            <g transform="matrix(1,0,0,1.021685,-0,0)">
                <path d="M1799.691,0L1901.712,0C1933.937,0 1958.349,3.447 1974.948,10.34C1991.546,17.233 2004.947,31.186 2015.149,52.199C2025.351,73.212 2030.452,107.066 2030.452,153.762C2030.452,185.337 2026.849,207.35 2019.643,219.802C2012.436,232.254 1998.226,241.816 1977.013,248.487C2000.655,255.825 2016.687,267.999 2025.108,285.009C2033.529,302.02 2037.739,328.091 2037.739,363.224L2037.739,413.255C2037.739,449.722 2034.703,476.739 2028.63,494.305C2022.557,511.872 2012.882,523.879 1999.603,530.327C1986.324,536.776 1959.118,540 1917.986,540L1799.691,540L1799.691,0ZM1901.955,92.39L1901.955,212.464C1906.327,212.242 1909.728,212.131 1912.157,212.131C1922.197,212.131 1928.593,208.74 1931.346,201.958C1934.099,195.176 1935.476,175.775 1935.476,143.755C1935.476,126.856 1934.342,115.015 1932.075,108.233C1929.808,101.452 1926.852,97.171 1923.209,95.392C1919.565,93.613 1912.48,92.613 1901.955,92.39ZM1901.955,296.516L1901.955,447.61C1916.367,446.943 1925.557,443.83 1929.524,438.271C1933.492,432.712 1935.476,419.036 1935.476,397.245L1935.476,346.881C1935.476,323.755 1933.694,309.747 1930.132,304.855C1926.569,299.963 1917.177,297.183 1901.955,296.516Z" style="fill:rgb(204,0,0);fill-rule:nonzero;stroke:black;stroke-width:22.58px;"/>
            </g>
            <g transform="matrix(1,0,0,0.979846,-0,11.111779)">
                <path d="M2308.094,316.195C2308.094,370.451 2307.162,408.863 2305.3,431.433C2303.438,454.002 2297.608,474.626 2287.811,493.305C2278.014,511.983 2264.775,526.325 2248.096,536.331C2231.416,546.337 2211.984,551.34 2189.798,551.34C2168.746,551.34 2149.84,546.615 2133.08,537.165C2116.319,527.715 2102.838,513.539 2092.636,494.639C2082.434,475.738 2076.361,455.17 2074.418,432.934C2072.475,410.698 2071.503,371.785 2071.503,316.195L2071.503,223.805C2071.503,169.549 2072.434,131.137 2074.296,108.567C2076.159,85.998 2081.988,65.374 2091.786,46.695C2101.583,28.017 2114.821,13.675 2131.501,3.669C2148.18,-6.337 2167.613,-11.34 2189.798,-11.34C2210.85,-11.34 2229.756,-6.615 2246.517,2.835C2263.277,12.285 2276.759,26.461 2286.961,45.361C2297.163,64.262 2303.235,84.83 2305.179,107.066C2307.122,129.302 2308.094,168.215 2308.094,223.805L2308.094,316.195ZM2205.83,138.752C2205.83,113.626 2204.818,97.56 2202.794,90.556C2200.77,83.552 2196.6,80.049 2190.284,80.049C2184.94,80.049 2180.851,82.884 2178.017,88.555C2175.183,94.225 2173.766,110.957 2173.766,138.752L2173.766,390.908C2173.766,422.261 2174.698,441.606 2176.56,448.944C2178.422,456.282 2182.754,459.951 2189.555,459.951C2196.519,459.951 2200.972,455.726 2202.915,447.276C2204.858,438.826 2205.83,418.703 2205.83,386.905L2205.83,138.752Z" style="fill:rgb(204,0,0);fill-rule:nonzero;stroke:black;stroke-width:22.91px;"/>
            </g>
            <g transform="matrix(1,0,0,0.979846,-0,11.111779)">
                <path d="M2579.905,316.195C2579.905,370.451 2578.974,408.863 2577.112,431.433C2575.25,454.002 2569.42,474.626 2559.623,493.305C2549.826,511.983 2536.587,526.325 2519.908,536.331C2503.228,546.337 2483.796,551.34 2461.61,551.34C2440.558,551.34 2421.652,546.615 2404.892,537.165C2388.131,527.715 2374.65,513.539 2364.448,494.639C2354.246,475.738 2348.173,455.17 2346.23,432.934C2344.287,410.698 2343.315,371.785 2343.315,316.195L2343.315,223.805C2343.315,169.549 2344.246,131.137 2346.108,108.567C2347.971,85.998 2353.8,65.374 2363.598,46.695C2373.395,28.017 2386.633,13.675 2403.313,3.669C2419.992,-6.337 2439.425,-11.34 2461.61,-11.34C2482.662,-11.34 2501.568,-6.615 2518.329,2.835C2535.089,12.285 2548.571,26.461 2558.773,45.361C2568.975,64.262 2575.047,84.83 2576.991,107.066C2578.934,129.302 2579.905,168.215 2579.905,223.805L2579.905,316.195ZM2477.642,138.752C2477.642,113.626 2476.63,97.56 2474.606,90.556C2472.581,83.552 2468.412,80.049 2462.096,80.049C2456.752,80.049 2452.663,82.884 2449.829,88.555C2446.995,94.225 2445.578,110.957 2445.578,138.752L2445.578,390.908C2445.578,422.261 2446.51,441.606 2448.372,448.944C2450.234,456.282 2454.566,459.951 2461.367,459.951C2468.331,459.951 2472.784,455.726 2474.727,447.276C2476.67,438.826 2477.642,418.703 2477.642,386.905L2477.642,138.752Z" style="fill:rgb(204,0,0);fill-rule:nonzero;stroke:black;stroke-width:22.91px;"/>
            </g>
        </g>
        <g transform="matrix(1.014954,0,0,1.014954,-31.482747,-0.496166)">
            <g transform="matrix(2.773324,0,0,0.179261,-133.808675,-42.352978)">
                <path d="M116.374,752.147L109.287,752.147L106.47,638.767L93.573,638.767L90.91,752.147L84,752.147L96.567,253L103.455,253L116.374,752.147ZM104.379,554.667L99.934,369.445L95.576,554.667L104.379,554.667Z" style="fill:white;fill-rule:nonzero;"/>
                <path d="M137.016,752.147L137.016,253L146.765,253L152.62,593.482L158.408,253L168.179,253L168.179,752.147L162.127,752.147L162.127,359.231L155.723,752.147L149.45,752.147L143.068,359.231L143.068,752.147L137.016,752.147Z" style="fill:white;fill-rule:nonzero;"/>
                <rect x="193.399" y="253" width="6.514" height="499.147" style="fill:white;fill-rule:nonzero;"/>
                <path d="M232.33,752.147L232.33,337.44L222.757,337.44L222.757,253L248.396,253L248.396,337.44L238.844,337.44L238.844,752.147L232.33,752.147Z" style="fill:white;fill-rule:nonzero;"/>
                <path d="M278.788,752.147L278.788,542.07L266.97,253L274.606,253L282.199,450.48L289.638,253L297.143,253L285.28,542.751L285.28,752.147L278.788,752.147Z" style="fill:white;fill-rule:nonzero;"/>
                <path d="M731.422,568.627L731.422,484.528L745.463,484.528L745.463,683.37C744.098,703.799 742.121,721.788 739.532,737.336C736.942,752.885 734.319,760.659 731.664,760.659C728.289,760.659 725.347,749.707 722.839,727.803C720.33,705.898 718.444,674.574 717.183,633.83C715.921,593.085 715.29,548.766 715.29,500.871C715.29,448.891 715.994,402.699 717.403,362.295C718.811,321.891 720.873,290.907 723.587,269.343C725.656,252.773 728.231,244.488 731.312,244.488C735.317,244.488 738.446,257.483 740.698,283.473C742.95,309.463 744.399,345.384 745.045,391.236L738.574,409.962C738.119,385.448 737.265,366.097 736.01,351.91C734.756,337.723 733.19,330.63 731.312,330.63C728.465,330.63 726.202,344.59 724.522,372.509C722.842,400.429 722.002,441.854 722.002,496.785C722.002,556.029 722.853,600.462 724.555,630.084C726.257,659.706 728.487,674.517 731.246,674.517C732.61,674.517 733.978,670.375 735.35,662.09C736.722,653.805 737.899,643.76 738.882,631.957L738.882,568.627L731.422,568.627Z" style="fill:white;fill-rule:nonzero;"/>
                <path d="M796.982,752.147L789.896,752.147L787.079,638.767L774.182,638.767L771.519,752.147L764.609,752.147L777.175,253L784.064,253L796.982,752.147ZM784.988,554.667L780.542,369.445L776.185,554.667L784.988,554.667Z" style="fill:white;fill-rule:nonzero;"/>
                <path d="M817.625,752.147L817.625,253L827.374,253L833.228,593.482L839.016,253L848.788,253L848.788,752.147L842.736,752.147L842.736,359.231L836.331,752.147L830.059,752.147L823.677,359.231L823.677,752.147L817.625,752.147Z" style="fill:white;fill-rule:nonzero;"/>
                <path d="M874.206,752.147L874.206,253L898.128,253L898.128,337.44L880.72,337.44L880.72,448.096L896.918,448.096L896.918,532.196L880.72,532.196L880.72,668.048L898.745,668.048L898.745,752.147L874.206,752.147Z" style="fill:white;fill-rule:nonzero;"/>
                <path d="M921.566,589.737L927.904,580.204C928.285,613.117 929.059,637.291 930.226,652.726C931.392,668.162 932.966,675.879 934.947,675.879C937.045,675.879 938.626,669.013 939.689,655.28C940.753,641.547 941.285,625.488 941.285,607.102C941.285,595.298 941.061,585.254 940.614,576.969C940.166,568.684 939.385,561.477 938.27,555.348C937.507,551.263 935.768,543.999 933.054,533.558C929.562,520.165 927.112,503.709 925.703,484.188C923.723,456.722 922.732,423.241 922.732,383.745C922.732,358.323 923.198,334.546 924.13,312.414C925.061,290.283 926.404,273.429 928.157,261.853C929.91,250.276 932.027,244.488 934.506,244.488C938.556,244.488 941.604,258.221 943.651,285.686C945.697,313.152 946.772,349.811 946.875,395.662L940.361,400.088C940.082,374.439 939.484,355.996 938.567,344.76C937.65,333.524 936.274,327.906 934.44,327.906C932.548,327.906 931.066,333.921 929.995,345.952C929.305,353.669 928.96,363.997 928.96,376.936C928.96,388.739 929.283,398.84 929.929,407.239C930.75,417.907 932.746,429.029 935.915,440.606C939.084,452.182 941.428,464.156 942.946,476.527C944.465,488.898 945.653,505.808 946.512,527.259C947.37,548.709 947.799,575.21 947.799,606.761C947.799,635.362 947.286,662.146 946.259,687.115C945.232,712.084 943.779,730.64 941.901,742.784C940.023,754.928 937.683,761 934.881,761C930.802,761 927.669,746.416 925.483,717.248C923.297,688.08 921.991,645.576 921.566,589.737Z" style="fill:white;fill-rule:nonzero;"/>
            </g>
            <g transform="matrix(1.011796,0,0,1.011796,86.267417,-105.235404)">
                <path d="M12.733,201.188L2386.432,201.188" style="fill:none;stroke:white;stroke-width:12.33px;stroke-linejoin:miter;stroke-miterlimit:1.5;"/>
            </g>
        </g>
    </g>
</svg>
