<?xml version="1.0" encoding="UTF-8" standalone="no"?>
<!DOCTYPE svg PUBLIC "-//W3C//DTD SVG 1.1//EN" "http://www.w3.org/Graphics/SVG/1.1/DTD/svg11.dtd">
<svg width="100%" height="100%" viewBox="0 0 963 397" version="1.1" xmlns="http://www.w3.org/2000/svg" xmlns:xlink="http://www.w3.org/1999/xlink" xml:space="preserve" xmlns:serif="http://www.serif.com/" style="fill-rule:evenodd;clip-rule:evenodd;stroke-linecap:round;stroke-linejoin:round;stroke-miterlimit:1.5;">
    <g transform="matrix(1,0,0,1,-74.999298,-1423.999738)">
        <g transform="matrix(1,0,0,0.778905,0,405.740365)">
            <path d="M1031,1404.571L1031,1718.429C1031,1767.864 999.738,1808 961.232,1808L150.768,1808C112.262,1808 81,1767.864 81,1718.429L81,1404.571C81,1355.136 112.262,1315 150.768,1315L961.232,1315C999.738,1315 1031,1355.136 1031,1404.571Z" style="fill:rgb(110,143,42);stroke:black;stroke-width:13.39px;"/>
        </g>
        <g transform="matrix(1.108518,0,0,0.687783,-59.781797,530.488688)">
            <path d="M165.13,1366L188.999,1366L188.999,1383.481L179.223,1383.481L179.223,1400.046L187.927,1400.046L187.927,1416.664L179.223,1416.664L179.223,1453.353L165.13,1453.353L165.13,1366Z" style="fill-rule:nonzero;"/>
        </g>
        <g transform="matrix(1.108518,0,0,0.687783,-59.781797,530.488688)">
            <path d="M222.609,1406.898L222.609,1424.433C222.609,1430.872 222.408,1435.593 222.006,1438.597C221.605,1441.6 220.746,1444.406 219.429,1447.014C218.112,1449.621 216.421,1451.546 214.357,1452.787C212.293,1454.028 209.921,1454.648 207.243,1454.648C204.253,1454.648 201.72,1454.118 199.644,1453.057C197.569,1451.995 195.956,1450.395 194.807,1448.255C193.657,1446.114 192.837,1443.524 192.346,1440.485C191.855,1437.446 191.61,1432.886 191.61,1426.807L191.61,1408.463C191.61,1401.808 192.056,1396.611 192.949,1392.87C193.842,1389.129 195.448,1386.125 197.769,1383.859C200.09,1381.593 203.059,1380.46 206.674,1380.46C209.709,1380.46 212.315,1381.188 214.491,1382.645C216.667,1384.102 218.346,1385.999 219.529,1388.337C220.712,1390.675 221.521,1393.085 221.956,1395.567C222.391,1398.049 222.609,1401.826 222.609,1406.898ZM209.085,1401.502C209.085,1397.833 208.962,1395.522 208.716,1394.569C208.471,1393.616 207.946,1393.139 207.143,1393.139C206.339,1393.139 205.804,1393.616 205.536,1394.569C205.268,1395.522 205.134,1397.833 205.134,1401.502L205.134,1433.822C205.134,1437.203 205.268,1439.406 205.536,1440.431C205.804,1441.456 206.328,1441.969 207.109,1441.969C207.913,1441.969 208.443,1441.501 208.7,1440.566C208.956,1439.631 209.085,1437.616 209.085,1434.523L209.085,1401.502Z" style="fill-rule:nonzero;"/>
        </g>
        <g transform="matrix(1.108518,0,0,0.687783,-59.781797,530.488688)">
            <path d="M240.586,1381.755L240.05,1391.143C242.014,1384.417 244.86,1380.856 248.587,1380.46L248.587,1405.657C246.11,1405.657 244.291,1406.197 243.13,1407.276C241.97,1408.355 241.256,1409.856 240.988,1411.781C240.72,1413.705 240.586,1418.139 240.586,1425.081L240.586,1453.353L227.061,1453.353L227.061,1381.755L240.586,1381.755Z" style="fill-rule:nonzero;"/>
        </g>
        <g transform="matrix(1.108518,0,0,0.687783,-59.781797,530.488688)">
            <path d="M277.946,1372.205L277.946,1383.481L281.595,1383.481L281.595,1394.812L277.946,1394.812L277.946,1433.12C277.946,1437.832 278.096,1440.458 278.398,1440.998C278.699,1441.537 279.954,1441.807 282.164,1441.807L282.164,1453.353L276.707,1453.353C273.627,1453.353 271.429,1453.146 270.112,1452.733C268.796,1452.319 267.635,1451.366 266.631,1449.873C265.626,1448.38 265.002,1446.672 264.756,1444.747C264.511,1442.823 264.388,1438.3 264.388,1431.178L264.388,1394.812L261.475,1394.812L261.475,1383.481L264.388,1383.481L264.388,1372.205L277.946,1372.205Z" style="fill-rule:nonzero;"/>
        </g>
        <g transform="matrix(1.108518,0,0,0.687783,-59.781797,530.488688)">
            <path d="M298.099,1366L298.099,1385.64C299.259,1383.913 300.515,1382.618 301.865,1381.755C303.215,1380.892 304.66,1380.46 306.2,1380.46C308.566,1380.46 310.58,1381.431 312.243,1383.374C313.905,1385.316 314.921,1387.555 315.289,1390.091C315.657,1392.627 315.841,1397.258 315.841,1403.984L315.841,1453.353L302.317,1453.353L302.317,1402.959C302.317,1398.787 302.188,1396.107 301.932,1394.92C301.675,1393.733 301.1,1393.139 300.208,1393.139C299.382,1393.139 298.824,1393.751 298.534,1394.974C298.244,1396.197 298.099,1398.625 298.099,1402.258L298.099,1453.353L284.574,1453.353L284.574,1366L298.099,1366Z" style="fill-rule:nonzero;"/>
        </g>
        <g transform="matrix(1.108518,0,0,0.687783,-59.781797,530.488688)">
            <path d="M351.126,1418.822L333.617,1418.822L333.617,1434.307C333.617,1437.544 333.762,1439.631 334.053,1440.566C334.343,1441.501 334.901,1441.969 335.726,1441.969C336.753,1441.969 337.439,1441.348 337.785,1440.107C338.131,1438.866 338.304,1436.465 338.304,1432.904L338.304,1423.462L351.126,1423.462L351.126,1428.75C351.126,1433.174 350.953,1436.573 350.607,1438.947C350.261,1441.321 349.452,1443.857 348.18,1446.555C346.908,1449.253 345.295,1451.276 343.342,1452.625C341.389,1453.974 338.94,1454.648 335.994,1454.648C333.138,1454.648 330.616,1453.983 328.428,1452.652C326.241,1451.321 324.54,1449.495 323.323,1447.175C322.107,1444.855 321.264,1442.301 320.796,1439.514C320.327,1436.726 320.093,1432.67 320.093,1427.347L320.093,1406.466C320.093,1400.208 320.617,1395.271 321.666,1391.656C322.715,1388.041 324.434,1385.271 326.822,1383.347C329.21,1381.422 331.955,1380.46 335.057,1380.46C338.851,1380.46 341.981,1381.62 344.447,1383.94C346.913,1386.26 348.643,1389.336 349.636,1393.166C350.629,1396.997 351.126,1402.384 351.126,1409.326L351.126,1418.822ZM337.568,1407.168L337.568,1401.934C337.568,1398.229 337.445,1395.837 337.199,1394.758C336.954,1393.679 336.452,1393.139 335.693,1393.139C334.756,1393.139 334.175,1393.598 333.952,1394.515C333.729,1395.432 333.617,1397.905 333.617,1401.934L333.617,1407.168L337.568,1407.168Z" style="fill-rule:nonzero;"/>
        </g>
        <g transform="matrix(1.108518,0,0,0.687783,-59.781797,530.488688)">
            <path d="M381.154,1366L381.154,1386.665C382.27,1384.579 383.514,1383.023 384.887,1381.998C386.259,1380.973 387.749,1380.46 389.356,1380.46C391.208,1380.46 392.815,1380.928 394.176,1381.863C395.538,1382.798 396.576,1384.111 397.29,1385.802C398.004,1387.492 398.434,1389.147 398.579,1390.765C398.724,1392.384 398.796,1395.837 398.796,1401.125L398.796,1433.39C398.796,1438.642 398.579,1442.553 398.143,1445.125C397.708,1447.697 396.687,1449.927 395.08,1451.816C393.473,1453.704 391.565,1454.648 389.356,1454.648C387.771,1454.648 386.293,1454.091 384.92,1452.976C383.548,1451.861 382.292,1450.188 381.154,1447.958L380.284,1453.353L367.63,1453.353L367.63,1366L381.154,1366ZM385.272,1402.096C385.272,1398.391 385.127,1395.972 384.836,1394.839C384.546,1393.706 383.977,1393.139 383.129,1393.139C382.303,1393.139 381.768,1393.634 381.522,1394.623C381.277,1395.612 381.154,1398.103 381.154,1402.096L381.154,1432.958C381.154,1436.807 381.294,1439.271 381.573,1440.35C381.851,1441.429 382.404,1441.969 383.23,1441.969C384.078,1441.969 384.63,1441.411 384.887,1440.296C385.143,1439.181 385.272,1436.501 385.272,1432.257L385.272,1402.096Z" style="fill-rule:nonzero;"/>
        </g>
        <g transform="matrix(1.108518,0,0,0.687783,-59.781797,530.488688)">
            <path d="M433.88,1418.822L416.371,1418.822L416.371,1434.307C416.371,1437.544 416.516,1439.631 416.807,1440.566C417.097,1441.501 417.655,1441.969 418.48,1441.969C419.507,1441.969 420.193,1441.348 420.539,1440.107C420.885,1438.866 421.058,1436.465 421.058,1432.904L421.058,1423.462L433.88,1423.462L433.88,1428.75C433.88,1433.174 433.707,1436.573 433.361,1438.947C433.015,1441.321 432.206,1443.857 430.934,1446.555C429.662,1449.253 428.049,1451.276 426.096,1452.625C424.144,1453.974 421.694,1454.648 418.748,1454.648C415.892,1454.648 413.37,1453.983 411.183,1452.652C408.995,1451.321 407.294,1449.495 406.077,1447.175C404.861,1444.855 404.019,1442.301 403.55,1439.514C403.081,1436.726 402.847,1432.67 402.847,1427.347L402.847,1406.466C402.847,1400.208 403.371,1395.271 404.42,1391.656C405.469,1388.041 407.188,1385.271 409.576,1383.347C411.964,1381.422 414.709,1380.46 417.811,1380.46C421.605,1380.46 424.735,1381.62 427.201,1383.94C429.667,1386.26 431.397,1389.336 432.39,1393.166C433.383,1396.997 433.88,1402.384 433.88,1409.326L433.88,1418.822ZM420.322,1407.168L420.322,1401.934C420.322,1398.229 420.199,1395.837 419.953,1394.758C419.708,1393.679 419.206,1393.139 418.447,1393.139C417.51,1393.139 416.929,1393.598 416.706,1394.515C416.483,1395.432 416.371,1397.905 416.371,1401.934L416.371,1407.168L420.322,1407.168Z" style="fill-rule:nonzero;"/>
        </g>
        <g transform="matrix(1.108518,0,0,0.687783,-59.781797,530.488688)">
            <path d="M465.917,1404.632L453.932,1404.632L453.932,1400.747C453.932,1397.438 453.815,1395.343 453.581,1394.461C453.346,1393.58 452.76,1393.139 451.823,1393.139C451.064,1393.139 450.495,1393.544 450.116,1394.353C449.736,1395.163 449.547,1396.377 449.547,1397.995C449.547,1400.19 449.642,1401.799 449.831,1402.824C450.021,1403.849 450.59,1404.974 451.539,1406.197C452.487,1407.42 454.434,1409.2 457.38,1411.538C461.308,1414.632 463.886,1417.545 465.113,1420.279C466.341,1423.013 466.954,1426.987 466.954,1432.203C466.954,1438.03 466.486,1442.427 465.548,1445.395C464.611,1448.362 463.043,1450.647 460.845,1452.247C458.647,1453.848 455.996,1454.648 452.894,1454.648C449.457,1454.648 446.517,1453.785 444.073,1452.058C441.629,1450.332 439.95,1447.994 439.035,1445.044C438.12,1442.095 437.663,1437.634 437.663,1431.663L437.663,1428.21L449.647,1428.21L449.647,1432.742C449.647,1436.591 449.798,1439.091 450.099,1440.242C450.4,1441.393 450.997,1441.969 451.89,1441.969C452.85,1441.969 453.519,1441.582 453.899,1440.809C454.278,1440.035 454.468,1438.408 454.468,1435.926C454.468,1432.509 454.222,1430.368 453.731,1429.505C453.218,1428.642 450.596,1426.088 445.864,1421.844C441.892,1418.247 439.47,1414.982 438.6,1412.051C437.729,1409.119 437.294,1405.639 437.294,1401.61C437.294,1395.891 437.763,1391.674 438.7,1388.958C439.638,1386.242 441.228,1384.147 443.471,1382.672C445.714,1381.197 448.319,1380.46 451.287,1380.46C454.233,1380.46 456.739,1381.062 458.803,1382.267C460.867,1383.472 462.452,1385.064 463.557,1387.042C464.661,1389.021 465.331,1390.855 465.565,1392.546C465.8,1394.236 465.917,1396.88 465.917,1400.477L465.917,1404.632Z" style="fill-rule:nonzero;"/>
        </g>
        <g transform="matrix(1.108518,0,0,0.687783,-59.781797,530.488688)">
            <path d="M484.831,1372.205L484.831,1383.481L488.48,1383.481L488.48,1394.812L484.831,1394.812L484.831,1433.12C484.831,1437.832 484.982,1440.458 485.283,1440.998C485.584,1441.537 486.84,1441.807 489.049,1441.807L489.049,1453.353L483.592,1453.353C480.513,1453.353 478.314,1453.146 476.997,1452.733C475.681,1452.319 474.52,1451.366 473.516,1449.873C472.512,1448.38 471.887,1446.672 471.641,1444.747C471.396,1442.823 471.273,1438.3 471.273,1431.178L471.273,1394.812L468.361,1394.812L468.361,1383.481L471.273,1383.481L471.273,1372.205L484.831,1372.205Z" style="fill-rule:nonzero;"/>
        </g>
        <g transform="matrix(1.108518,0,0,0.687783,-59.781797,530.488688)">
            <path d="M520.785,1366L520.785,1377.061C517.995,1377.061 516.349,1377.268 515.847,1377.681C515.345,1378.095 515.094,1379.273 515.094,1381.215L515.094,1383.481L520.785,1383.481L520.785,1394.812L517.571,1394.812L517.571,1453.353L504.047,1453.353L504.047,1394.812L501.268,1394.812L501.268,1383.481L504.047,1383.481C504.047,1378.769 504.147,1375.622 504.348,1374.039C504.549,1372.457 505.045,1371.045 505.838,1369.804C506.63,1368.563 507.74,1367.619 509.168,1366.971C510.597,1366.324 512.817,1366 515.83,1366L520.785,1366Z" style="fill-rule:nonzero;"/>
        </g>
        <g transform="matrix(1.108518,0,0,0.687783,-59.781797,530.488688)">
            <path d="M554.328,1381.755L554.328,1453.353L540.569,1453.353L540.804,1447.418C539.866,1449.828 538.712,1451.636 537.339,1452.841C535.966,1454.046 534.387,1454.648 532.602,1454.648C530.571,1454.648 528.886,1454.073 527.547,1452.922C526.208,1451.771 525.22,1450.242 524.584,1448.335C523.948,1446.429 523.552,1444.442 523.396,1442.373C523.24,1440.305 523.162,1436.196 523.162,1430.045L523.162,1381.755L536.686,1381.755L536.686,1430.476C536.686,1436.052 536.792,1439.361 537.004,1440.404C537.216,1441.447 537.791,1441.969 538.728,1441.969C539.733,1441.969 540.33,1441.429 540.519,1440.35C540.709,1439.271 540.804,1435.8 540.804,1429.937L540.804,1381.755L554.328,1381.755Z" style="fill-rule:nonzero;"/>
        </g>
        <g transform="matrix(1.108518,0,0,0.687783,-59.781797,530.488688)">
            <rect x="559.182" y="1366" width="13.926" height="87.353"/>
        </g>
        <g transform="matrix(1.108518,0,0,0.687783,-59.781797,530.488688)">
            <rect x="577.963" y="1366" width="13.926" height="87.353"/>
        </g>
        <g transform="matrix(1.108518,0,0,0.687783,-59.781797,530.488688)">
            <path d="M636.446,1404.632L624.462,1404.632L624.462,1400.747C624.462,1397.438 624.345,1395.343 624.11,1394.461C623.876,1393.58 623.29,1393.139 622.353,1393.139C621.594,1393.139 621.025,1393.544 620.645,1394.353C620.266,1395.163 620.076,1396.377 620.076,1397.995C620.076,1400.19 620.171,1401.799 620.361,1402.824C620.551,1403.849 621.12,1404.974 622.068,1406.197C623.017,1407.42 624.964,1409.2 627.91,1411.538C631.838,1414.632 634.415,1417.545 635.643,1420.279C636.87,1423.013 637.484,1426.987 637.484,1432.203C637.484,1438.03 637.015,1442.427 636.078,1445.395C635.141,1448.362 633.573,1450.647 631.375,1452.247C629.176,1453.848 626.526,1454.648 623.424,1454.648C619.987,1454.648 617.047,1453.785 614.603,1452.058C612.159,1450.332 610.48,1447.994 609.565,1445.044C608.65,1442.095 608.192,1437.634 608.192,1431.663L608.192,1428.21L620.177,1428.21L620.177,1432.742C620.177,1436.591 620.327,1439.091 620.629,1440.242C620.93,1441.393 621.527,1441.969 622.42,1441.969C623.379,1441.969 624.049,1441.582 624.428,1440.809C624.808,1440.035 624.997,1438.408 624.997,1435.926C624.997,1432.509 624.752,1430.368 624.261,1429.505C623.748,1428.642 621.125,1426.088 616.394,1421.844C612.421,1418.247 610,1414.982 609.129,1412.051C608.259,1409.119 607.824,1405.639 607.824,1401.61C607.824,1395.891 608.293,1391.674 609.23,1388.958C610.167,1386.242 611.757,1384.147 614,1382.672C616.243,1381.197 618.849,1380.46 621.817,1380.46C624.763,1380.46 627.268,1381.062 629.333,1382.267C631.397,1383.472 632.982,1385.064 634.086,1387.042C635.191,1389.021 635.86,1390.855 636.095,1392.546C636.329,1394.236 636.446,1396.88 636.446,1400.477L636.446,1404.632Z" style="fill-rule:nonzero;"/>
        </g>
        <g transform="matrix(1.108518,0,0,0.687783,-59.781797,530.488688)">
            <path d="M670.994,1408.786L658.24,1408.786L658.24,1400.531C658.24,1397.654 658.095,1395.702 657.804,1394.677C657.514,1393.652 656.979,1393.139 656.197,1393.139C655.416,1393.139 654.892,1393.589 654.624,1394.488C654.356,1395.388 654.222,1397.402 654.222,1400.531L654.222,1434.307C654.222,1436.861 654.423,1438.776 654.825,1440.053C655.227,1441.33 655.818,1441.969 656.599,1441.969C657.514,1441.969 658.134,1441.303 658.457,1439.972C658.781,1438.642 658.943,1436.124 658.943,1432.419L658.943,1423.894L670.994,1423.894C670.972,1429.613 670.843,1433.902 670.609,1436.762C670.375,1439.622 669.627,1442.553 668.366,1445.557C667.105,1448.56 665.459,1450.826 663.428,1452.355C661.398,1453.884 658.887,1454.648 655.896,1454.648C652.08,1454.648 649.056,1453.596 646.824,1451.492C644.592,1449.388 643.013,1446.438 642.087,1442.643C641.161,1438.848 640.698,1433.462 640.698,1426.484L640.698,1406.143C640.698,1400.064 641.077,1395.477 641.836,1392.384C642.595,1389.291 644.213,1386.53 646.69,1384.102C649.167,1381.674 652.18,1380.46 655.729,1380.46C659.255,1380.46 662.268,1381.665 664.768,1384.075C667.267,1386.485 668.93,1389.524 669.756,1393.193C670.581,1396.862 670.994,1402.06 670.994,1408.786Z" style="fill-rule:nonzero;"/>
        </g>
        <g transform="matrix(1.108518,0,0,0.687783,-59.781797,530.488688)">
            <path d="M688.536,1381.755L688,1391.143C689.964,1384.417 692.81,1380.856 696.537,1380.46L696.537,1405.657C694.059,1405.657 692.241,1406.197 691.08,1407.276C689.92,1408.355 689.205,1409.856 688.938,1411.781C688.67,1413.705 688.536,1418.139 688.536,1425.081L688.536,1453.353L675.011,1453.353L675.011,1381.755L688.536,1381.755Z" style="fill-rule:nonzero;"/>
        </g>
        <g transform="matrix(1.108518,0,0,0.687783,-59.781797,530.488688)">
            <path d="M730.181,1418.822L712.672,1418.822L712.672,1434.307C712.672,1437.544 712.818,1439.631 713.108,1440.566C713.398,1441.501 713.956,1441.969 714.781,1441.969C715.808,1441.969 716.494,1441.348 716.84,1440.107C717.186,1438.866 717.359,1436.465 717.359,1432.904L717.359,1423.462L730.181,1423.462L730.181,1428.75C730.181,1433.174 730.008,1436.573 729.662,1438.947C729.316,1441.321 728.507,1443.857 727.235,1446.555C725.963,1449.253 724.35,1451.276 722.397,1452.625C720.445,1453.974 717.995,1454.648 715.049,1454.648C712.193,1454.648 709.671,1453.983 707.484,1452.652C705.296,1451.321 703.595,1449.495 702.378,1447.175C701.162,1444.855 700.32,1442.301 699.851,1439.514C699.382,1436.726 699.148,1432.67 699.148,1427.347L699.148,1406.466C699.148,1400.208 699.672,1395.271 700.721,1391.656C701.77,1388.041 703.489,1385.271 705.877,1383.347C708.265,1381.422 711.01,1380.46 714.112,1380.46C717.906,1380.46 721.036,1381.62 723.502,1383.94C725.968,1386.26 727.698,1389.336 728.691,1393.166C729.684,1396.997 730.181,1402.384 730.181,1409.326L730.181,1418.822ZM716.623,1407.168L716.623,1401.934C716.623,1398.229 716.5,1395.837 716.254,1394.758C716.009,1393.679 715.507,1393.139 714.748,1393.139C713.811,1393.139 713.23,1393.598 713.007,1394.515C712.784,1395.432 712.672,1397.905 712.672,1401.934L712.672,1407.168L716.623,1407.168Z" style="fill-rule:nonzero;"/>
        </g>
        <g transform="matrix(1.108518,0,0,0.687783,-59.781797,530.488688)">
            <path d="M765.231,1418.822L747.722,1418.822L747.722,1434.307C747.722,1437.544 747.867,1439.631 748.158,1440.566C748.448,1441.501 749.006,1441.969 749.831,1441.969C750.858,1441.969 751.544,1441.348 751.89,1440.107C752.236,1438.866 752.409,1436.465 752.409,1432.904L752.409,1423.462L765.231,1423.462L765.231,1428.75C765.231,1433.174 765.058,1436.573 764.712,1438.947C764.366,1441.321 763.557,1443.857 762.285,1446.555C761.013,1449.253 759.4,1451.276 757.447,1452.625C755.495,1453.974 753.045,1454.648 750.099,1454.648C747.243,1454.648 744.721,1453.983 742.534,1452.652C740.346,1451.321 738.645,1449.495 737.428,1447.175C736.212,1444.855 735.37,1442.301 734.901,1439.514C734.432,1436.726 734.198,1432.67 734.198,1427.347L734.198,1406.466C734.198,1400.208 734.722,1395.271 735.771,1391.656C736.82,1388.041 738.539,1385.271 740.927,1383.347C743.315,1381.422 746.06,1380.46 749.162,1380.46C752.956,1380.46 756.086,1381.62 758.552,1383.94C761.018,1386.26 762.748,1389.336 763.741,1393.166C764.734,1396.997 765.231,1402.384 765.231,1409.326L765.231,1418.822ZM751.673,1407.168L751.673,1401.934C751.673,1398.229 751.55,1395.837 751.304,1394.758C751.059,1393.679 750.557,1393.139 749.798,1393.139C748.861,1393.139 748.28,1393.598 748.057,1394.515C747.834,1395.432 747.722,1397.905 747.722,1401.934L747.722,1407.168L751.673,1407.168Z" style="fill-rule:nonzero;"/>
        </g>
        <g transform="matrix(1.108518,0,0,0.687783,-59.781797,530.488688)">
            <path d="M783.408,1381.755L783.174,1388.337C784.156,1385.712 785.356,1383.742 786.773,1382.429C788.19,1381.116 789.825,1380.46 791.677,1380.46C793.998,1380.46 795.895,1381.341 797.368,1383.104C798.841,1384.866 799.79,1387.087 800.214,1389.767C800.638,1392.447 800.85,1396.916 800.85,1403.175L800.85,1453.353L787.325,1453.353L787.325,1403.769C787.325,1398.841 787.225,1395.837 787.024,1394.758C786.823,1393.679 786.265,1393.139 785.35,1393.139C784.39,1393.139 783.788,1393.76 783.542,1395.001C783.297,1396.242 783.174,1399.56 783.174,1404.956L783.174,1453.353L769.65,1453.353L769.65,1381.755L783.408,1381.755Z" style="fill-rule:nonzero;"/>
        </g>
        <g transform="matrix(1.108518,0,0,0.687783,-59.781797,530.488688)">
            <path d="M831.347,1381.755L831.113,1388.068C832.318,1385.514 833.646,1383.607 835.096,1382.348C836.547,1381.089 838.131,1380.46 839.85,1380.46C841.948,1380.46 843.761,1381.368 845.29,1383.185C846.819,1385.001 847.773,1387.096 848.152,1389.47C848.532,1391.844 848.721,1395.873 848.721,1401.556L848.721,1431.717C848.721,1438.228 848.481,1442.859 848.001,1445.611C847.522,1448.362 846.54,1450.557 845.056,1452.193C843.571,1453.83 841.78,1454.648 839.683,1454.648C838.009,1454.648 836.458,1454.019 835.029,1452.76C833.601,1451.501 832.295,1449.63 831.113,1447.148L831.113,1463.551L817.588,1463.551L817.588,1381.755L831.347,1381.755ZM835.197,1402.582C835.197,1398.157 835.096,1395.477 834.895,1394.542C834.695,1393.607 834.137,1393.139 833.222,1393.139C832.329,1393.139 831.754,1393.679 831.498,1394.758C831.241,1395.837 831.113,1398.445 831.113,1402.582L831.113,1432.257C831.113,1436.573 831.246,1439.271 831.514,1440.35C831.782,1441.429 832.362,1441.969 833.255,1441.969C834.125,1441.969 834.667,1441.474 834.879,1440.485C835.091,1439.496 835.197,1437.095 835.197,1433.282L835.197,1402.582Z" style="fill-rule:nonzero;"/>
        </g>
        <g transform="matrix(1.108518,0,0,0.687783,-59.781797,530.488688)">
            <rect x="853.174" y="1366" width="13.926" height="87.353"/>
        </g>
        <g transform="matrix(1.108518,0,0,0.687783,-59.781797,530.488688)">
            <path d="M884.039,1409.488L871.351,1409.488L871.351,1404.686C871.351,1399.146 871.748,1394.875 872.54,1391.871C873.332,1388.868 874.922,1386.215 877.31,1383.913C879.698,1381.611 882.8,1380.46 886.617,1380.46C891.192,1380.46 894.64,1381.764 896.961,1384.372C899.282,1386.98 900.677,1390.181 901.146,1393.976C901.614,1397.771 901.849,1405.585 901.849,1417.419L901.849,1453.353L888.692,1453.353L888.692,1446.987C887.866,1449.54 886.801,1451.456 885.495,1452.733C884.19,1454.01 882.633,1454.648 880.825,1454.648C878.46,1454.648 876.289,1453.578 874.314,1451.438C872.339,1449.298 871.351,1444.613 871.351,1437.383L871.351,1431.501C871.351,1426.142 871.876,1422.491 872.925,1420.549C873.974,1418.606 876.574,1416.34 880.725,1413.75C885.166,1410.945 887.543,1409.056 887.855,1408.085C888.168,1407.114 888.324,1405.135 888.324,1402.15C888.324,1398.409 888.151,1395.972 887.805,1394.839C887.459,1393.706 886.884,1393.139 886.081,1393.139C885.166,1393.139 884.597,1393.616 884.374,1394.569C884.151,1395.522 884.039,1397.995 884.039,1401.988L884.039,1409.488ZM888.324,1419.308C886.159,1421.861 884.904,1424.002 884.558,1425.728C884.212,1427.455 884.039,1429.937 884.039,1433.174C884.039,1436.879 884.19,1439.271 884.491,1440.35C884.792,1441.429 885.389,1441.969 886.282,1441.969C887.13,1441.969 887.682,1441.546 887.939,1440.701C888.196,1439.856 888.324,1437.634 888.324,1434.037L888.324,1419.308Z" style="fill-rule:nonzero;"/>
        </g>
        <g transform="matrix(1.108518,0,0,0.687783,-59.781797,530.488688)">
            <path d="M934.823,1381.755L930.94,1433.552C930.337,1441.753 929.829,1447.346 929.416,1450.332C929.004,1453.317 928.317,1455.781 927.358,1457.724C926.398,1459.666 925.065,1461.096 923.357,1462.013C921.65,1462.93 918.922,1463.389 915.172,1463.389L906.97,1463.389L906.97,1451.95C909.068,1451.95 910.419,1451.78 911.021,1451.438C911.624,1451.096 911.925,1450.332 911.925,1449.145C911.925,1448.569 911.646,1446.069 911.088,1441.645L903.69,1381.755L915.976,1381.755L920.395,1430.045L922.537,1381.755L934.823,1381.755Z" style="fill-rule:nonzero;"/>
        </g>
        <g transform="matrix(1.108518,0,0,0.687783,-59.781797,530.488688)">
            <path d="M947.444,1396.485L947.444,1414.236L937.233,1414.236L937.233,1396.485L947.444,1396.485ZM947.444,1435.548L947.444,1453.353L937.233,1453.353L937.233,1435.548L947.444,1435.548Z" style="fill-rule:nonzero;"/>
        </g>
        <g transform="matrix(1.108518,0,0,0.687783,-59.781797,530.488688)">
            <path d="M205.044,1507.676L205.044,1523.777L197.336,1523.777L197.336,1588.133L184.355,1588.133L184.355,1523.777L176.677,1523.777L176.677,1507.676L205.044,1507.676Z" style="fill-rule:nonzero;"/>
        </g>
        <g transform="matrix(1.108518,0,0,0.687783,-59.781797,530.488688)">
            <path d="M216.114,1547.731L204.428,1547.731L204.428,1543.308C204.428,1538.206 204.793,1534.271 205.522,1531.505C206.252,1528.739 207.717,1526.295 209.916,1524.175C212.116,1522.055 214.973,1520.994 218.488,1520.994C222.702,1520.994 225.878,1522.195 228.016,1524.597C230.153,1526.999 231.438,1529.948 231.87,1533.443C232.301,1536.938 232.517,1544.136 232.517,1555.036L232.517,1588.133L220.4,1588.133L220.4,1582.269C219.639,1584.621 218.658,1586.385 217.455,1587.562C216.252,1588.738 214.819,1589.326 213.154,1589.326C210.975,1589.326 208.976,1588.34 207.157,1586.369C205.337,1584.398 204.428,1580.082 204.428,1573.423L204.428,1568.006C204.428,1563.07 204.911,1559.707 205.877,1557.918C206.843,1556.129 209.238,1554.042 213.061,1551.657C217.152,1549.072 219.341,1547.333 219.629,1546.439C219.917,1545.544 220.06,1543.722 220.06,1540.972C220.06,1537.527 219.901,1535.282 219.583,1534.238C219.264,1533.195 218.735,1532.673 217.995,1532.673C217.152,1532.673 216.628,1533.112 216.422,1533.99C216.217,1534.868 216.114,1537.146 216.114,1540.823L216.114,1547.731ZM220.06,1556.775C218.067,1559.127 216.91,1561.099 216.592,1562.689C216.273,1564.279 216.114,1566.565 216.114,1569.547C216.114,1572.959 216.252,1575.163 216.53,1576.156C216.807,1577.15 217.357,1577.647 218.18,1577.647C218.961,1577.647 219.469,1577.258 219.706,1576.479C219.942,1575.701 220.06,1573.655 220.06,1570.342L220.06,1556.775Z" style="fill-rule:nonzero;"/>
        </g>
        <g transform="matrix(1.108518,0,0,0.687783,-59.781797,530.488688)">
            <path d="M249.476,1522.187L249.26,1528.002C250.37,1525.649 251.593,1523.893 252.929,1522.734C254.265,1521.574 255.725,1520.994 257.308,1520.994C259.24,1520.994 260.91,1521.831 262.318,1523.504C263.726,1525.177 264.605,1527.107 264.954,1529.294C265.304,1531.48 265.478,1535.191 265.478,1540.425L265.478,1568.205C265.478,1574.202 265.257,1578.467 264.816,1581.002C264.374,1583.536 263.469,1585.557 262.102,1587.065C260.735,1588.572 259.086,1589.326 257.153,1589.326C255.612,1589.326 254.183,1588.746 252.867,1587.586C251.552,1586.427 250.349,1584.704 249.26,1582.418L249.26,1597.525L236.803,1597.525L236.803,1522.187L249.476,1522.187ZM253.022,1541.37C253.022,1537.295 252.929,1534.826 252.744,1533.965C252.559,1533.104 252.045,1532.673 251.202,1532.673C250.38,1532.673 249.851,1533.17 249.615,1534.164C249.378,1535.158 249.26,1537.56 249.26,1541.37L249.26,1568.702C249.26,1572.678 249.383,1575.163 249.63,1576.156C249.877,1577.15 250.411,1577.647 251.233,1577.647C252.035,1577.647 252.533,1577.192 252.729,1576.281C252.924,1575.37 253.022,1573.158 253.022,1569.646L253.022,1541.37Z" style="fill-rule:nonzero;"/>
        </g>
        <g transform="matrix(1.108518,0,0,0.687783,-59.781797,530.488688)">
            <path d="M278.984,1535.754L278.984,1552.104L269.579,1552.104L269.579,1535.754L278.984,1535.754ZM278.984,1571.734L278.984,1588.133L269.579,1588.133L269.579,1571.734L278.984,1571.734Z" style="fill-rule:nonzero;"/>
        </g>
        <g transform="matrix(1.108518,0,0,0.687783,-59.781797,530.488688)">
            <path d="M311.328,1547.532C311.328,1551.905 310.424,1555.508 308.615,1558.341C306.806,1561.173 304.678,1562.59 302.232,1562.59C299.704,1562.59 297.551,1561.157 295.773,1558.291C293.994,1555.425 293.105,1551.955 293.105,1547.88C293.105,1543.871 294,1540.425 295.788,1537.543C297.576,1534.661 299.714,1533.22 302.201,1533.22C304.874,1533.22 307.063,1534.71 308.769,1537.692C310.475,1540.674 311.328,1543.954 311.328,1547.532Z" style="fill-rule:nonzero;"/>
        </g>
        <g transform="matrix(1.108518,0,0,0.687783,-59.781797,530.488688)">
            <path d="M333.282,1547.532C333.282,1551.905 332.377,1555.508 330.568,1558.341C328.759,1561.173 326.632,1562.59 324.186,1562.59C321.657,1562.59 319.504,1561.157 317.726,1558.291C315.948,1555.425 315.059,1551.955 315.059,1547.88C315.059,1543.871 315.953,1540.425 317.742,1537.543C319.53,1534.661 321.668,1533.22 324.155,1533.22C326.827,1533.22 329.016,1534.71 330.723,1537.692C332.429,1540.674 333.282,1543.954 333.282,1547.532Z" style="fill-rule:nonzero;"/>
        </g>
        <g transform="matrix(1.108518,0,0,0.687783,-59.781797,530.488688)">
            <path d="M355.235,1547.532C355.235,1551.905 354.331,1555.508 352.522,1558.341C350.713,1561.173 348.585,1562.59 346.139,1562.59C343.611,1562.59 341.458,1561.157 339.68,1558.291C337.902,1555.425 337.013,1551.955 337.013,1547.88C337.013,1543.871 337.907,1540.425 339.695,1537.543C341.483,1534.661 343.621,1533.22 346.109,1533.22C348.781,1533.22 350.97,1534.71 352.676,1537.692C354.382,1540.674 355.235,1543.954 355.235,1547.532Z" style="fill-rule:nonzero;"/>
        </g>
        <g transform="matrix(1.108518,0,0,0.687783,-59.781797,530.488688)">
            <path d="M370.251,1522.038L399.913,1541.916L399.913,1552.054L370.251,1572.032L370.251,1558.912L388.566,1547.035L370.251,1535.207L370.251,1522.038Z" style="fill-rule:nonzero;"/>
        </g>
        <g transform="matrix(1.108518,0,0,0.687783,-59.781797,530.488688)">
            <path d="M443.142,1532.027L431.086,1532.027L431.086,1526.063C431.086,1523.28 430.932,1521.508 430.624,1520.746C430.315,1519.984 429.801,1519.603 429.082,1519.603C428.301,1519.603 427.71,1520.117 427.309,1521.144C426.908,1522.171 426.708,1523.728 426.708,1525.815C426.708,1528.498 426.934,1530.519 427.386,1531.878C427.818,1533.236 429.041,1534.876 431.055,1536.798C436.831,1542.33 440.47,1546.869 441.97,1550.414C443.471,1553.959 444.221,1559.674 444.221,1567.559C444.221,1573.291 443.805,1577.515 442.972,1580.231C442.14,1582.948 440.532,1585.226 438.147,1587.065C435.763,1588.903 432.988,1589.823 429.822,1589.823C426.348,1589.823 423.383,1588.763 420.926,1586.642C418.47,1584.522 416.862,1581.822 416.101,1578.542C415.34,1575.262 414.96,1570.607 414.96,1564.577L414.96,1559.31L427.016,1559.31L427.016,1569.1C427.016,1572.115 427.186,1574.053 427.525,1574.914C427.864,1575.775 428.465,1576.206 429.329,1576.206C430.192,1576.206 430.834,1575.659 431.256,1574.566C431.677,1573.473 431.888,1571.85 431.888,1569.696C431.888,1564.958 431.487,1561.861 430.685,1560.403C429.863,1558.945 427.838,1556.51 424.611,1553.098C421.384,1549.652 419.246,1547.151 418.198,1545.594C417.149,1544.037 416.281,1541.883 415.592,1539.133C414.904,1536.384 414.559,1532.872 414.559,1528.598C414.559,1522.436 415.047,1517.93 416.024,1515.081C417,1512.232 418.578,1510.004 420.757,1508.397C422.936,1506.79 425.567,1505.986 428.65,1505.986C432.021,1505.986 434.894,1506.864 437.268,1508.62C439.642,1510.376 441.215,1512.588 441.986,1515.255C442.757,1517.922 443.142,1522.452 443.142,1528.846L443.142,1532.027Z" style="fill-rule:nonzero;"/>
        </g>
        <g transform="matrix(1.108518,0,0,0.687783,-59.781797,530.488688)">
            <path d="M460.378,1507.676L460.378,1525.765C461.447,1524.175 462.603,1522.982 463.847,1522.187C465.091,1521.392 466.422,1520.994 467.84,1520.994C470.019,1520.994 471.874,1521.889 473.405,1523.678C474.937,1525.467 475.872,1527.529 476.211,1529.865C476.55,1532.201 476.72,1536.466 476.72,1542.662L476.72,1588.133L464.263,1588.133L464.263,1541.717C464.263,1537.874 464.145,1535.406 463.909,1534.313C463.672,1533.22 463.143,1532.673 462.321,1532.673C461.56,1532.673 461.046,1533.236 460.779,1534.363C460.512,1535.489 460.378,1537.725 460.378,1541.071L460.378,1588.133L447.921,1588.133L447.921,1507.676L460.378,1507.676Z" style="fill-rule:nonzero;"/>
        </g>
        <g transform="matrix(1.108518,0,0,0.687783,-59.781797,530.488688)">
            <path d="M492.137,1547.731L480.451,1547.731L480.451,1543.308C480.451,1538.206 480.816,1534.271 481.545,1531.505C482.275,1528.739 483.74,1526.295 485.939,1524.175C488.139,1522.055 490.996,1520.994 494.511,1520.994C498.725,1520.994 501.901,1522.195 504.039,1524.597C506.176,1526.999 507.461,1529.948 507.893,1533.443C508.324,1536.938 508.54,1544.136 508.54,1555.036L508.54,1588.133L496.423,1588.133L496.423,1582.269C495.662,1584.621 494.681,1586.385 493.478,1587.562C492.276,1588.738 490.842,1589.326 489.177,1589.326C486.998,1589.326 484.999,1588.34 483.18,1586.369C481.36,1584.398 480.451,1580.082 480.451,1573.423L480.451,1568.006C480.451,1563.07 480.934,1559.707 481.9,1557.918C482.866,1556.129 485.261,1554.042 489.084,1551.657C493.175,1549.072 495.364,1547.333 495.652,1546.439C495.94,1545.544 496.084,1543.722 496.084,1540.972C496.084,1537.527 495.924,1535.282 495.606,1534.238C495.287,1533.195 494.758,1532.673 494.018,1532.673C493.175,1532.673 492.651,1533.112 492.445,1533.99C492.24,1534.868 492.137,1537.146 492.137,1540.823L492.137,1547.731ZM496.084,1556.775C494.09,1559.127 492.933,1561.099 492.615,1562.689C492.296,1564.279 492.137,1566.565 492.137,1569.547C492.137,1572.959 492.276,1575.163 492.553,1576.156C492.831,1577.15 493.38,1577.647 494.203,1577.647C494.984,1577.647 495.493,1577.258 495.729,1576.479C495.965,1575.701 496.084,1573.655 496.084,1570.342L496.084,1556.775Z" style="fill-rule:nonzero;"/>
        </g>
        <g transform="matrix(1.108518,0,0,0.687783,-59.781797,530.488688)">
            <path d="M525.283,1522.187L524.79,1530.834C526.599,1524.639 529.219,1521.359 532.652,1520.994L532.652,1544.202C530.371,1544.202 528.695,1544.699 527.626,1545.693C526.557,1546.687 525.9,1548.07 525.653,1549.843C525.406,1551.615 525.283,1555.698 525.283,1562.093L525.283,1588.133L512.826,1588.133L512.826,1522.187L525.283,1522.187Z" style="fill-rule:nonzero;"/>
        </g>
        <g transform="matrix(1.108518,0,0,0.687783,-59.781797,530.488688)">
            <path d="M563.64,1556.328L547.514,1556.328L547.514,1570.591C547.514,1573.572 547.648,1575.494 547.915,1576.355C548.182,1577.217 548.696,1577.647 549.457,1577.647C550.402,1577.647 551.034,1577.076 551.353,1575.933C551.671,1574.79 551.831,1572.578 551.831,1569.298L551.831,1560.602L563.64,1560.602L563.64,1565.472C563.64,1569.547 563.481,1572.678 563.162,1574.864C562.844,1577.051 562.098,1579.387 560.927,1581.871C559.755,1584.356 558.27,1586.22 556.471,1587.462C554.673,1588.705 552.417,1589.326 549.703,1589.326C547.072,1589.326 544.749,1588.713 542.735,1587.487C540.72,1586.261 539.153,1584.58 538.033,1582.443C536.912,1580.306 536.136,1577.954 535.705,1575.386C535.273,1572.819 535.057,1569.083 535.057,1564.18L535.057,1544.948C535.057,1539.183 535.54,1534.636 536.506,1531.306C537.473,1527.977 539.055,1525.426 541.255,1523.653C543.454,1521.881 545.983,1520.994 548.84,1520.994C552.334,1520.994 555.217,1522.063 557.489,1524.2C559.76,1526.337 561.353,1529.169 562.268,1532.698C563.183,1536.226 563.64,1541.187 563.64,1547.582L563.64,1556.328ZM551.152,1545.594L551.152,1540.773C551.152,1537.361 551.039,1535.158 550.813,1534.164C550.587,1533.17 550.125,1532.673 549.426,1532.673C548.562,1532.673 548.028,1533.095 547.822,1533.94C547.617,1534.785 547.514,1537.063 547.514,1540.773L547.514,1545.594L551.152,1545.594Z" style="fill-rule:nonzero;"/>
        </g>
        <g transform="matrix(1.108518,0,0,0.687783,-59.781797,530.488688)">
            <path d="M578.625,1522.038L608.287,1541.916L608.287,1552.054L578.625,1572.032L578.625,1558.912L596.94,1547.035L578.625,1535.207L578.625,1522.038Z" style="fill-rule:nonzero;"/>
        </g>
        <g transform="matrix(1.108518,0,0,0.687783,-59.781797,530.488688)">
            <path d="M654.846,1507.676L648.248,1588.133L628.545,1588.133L621.052,1507.676L634.743,1507.676C636.325,1529.84 637.456,1548.575 638.134,1563.882C638.813,1548.41 639.522,1534.661 640.262,1522.634L641.156,1507.676L654.846,1507.676Z" style="fill-rule:nonzero;"/>
        </g>
        <g transform="matrix(1.108518,0,0,0.687783,-59.781797,530.488688)">
            <path d="M669.523,1507.676L669.523,1518.162L656.696,1518.162L656.696,1507.676L669.523,1507.676ZM669.523,1522.187L669.523,1588.133L656.696,1588.133L656.696,1522.187L669.523,1522.187Z" style="fill-rule:nonzero;"/>
        </g>
        <g transform="matrix(1.108518,0,0,0.687783,-59.781797,530.488688)">
            <path d="M702.207,1556.328L686.081,1556.328L686.081,1570.591C686.081,1573.572 686.214,1575.494 686.481,1576.355C686.749,1577.217 687.263,1577.647 688.023,1577.647C688.969,1577.647 689.601,1577.076 689.919,1575.933C690.238,1574.79 690.397,1572.578 690.397,1569.298L690.397,1560.602L702.207,1560.602L702.207,1565.472C702.207,1569.547 702.047,1572.678 701.729,1574.864C701.41,1577.051 700.665,1579.387 699.493,1581.871C698.322,1584.356 696.836,1586.22 695.038,1587.462C693.239,1588.705 690.983,1589.326 688.27,1589.326C685.639,1589.326 683.316,1588.713 681.301,1587.487C679.287,1586.261 677.72,1584.58 676.599,1582.443C675.479,1580.306 674.703,1577.954 674.271,1575.386C673.84,1572.819 673.624,1569.083 673.624,1564.18L673.624,1544.948C673.624,1539.183 674.107,1534.636 675.073,1531.306C676.039,1527.977 677.622,1525.426 679.821,1523.653C682.021,1521.881 684.549,1520.994 687.406,1520.994C690.901,1520.994 693.784,1522.063 696.055,1524.2C698.327,1526.337 699.92,1529.169 700.835,1532.698C701.749,1536.226 702.207,1541.187 702.207,1547.582L702.207,1556.328ZM689.719,1545.594L689.719,1540.773C689.719,1537.361 689.606,1535.158 689.38,1534.164C689.154,1533.17 688.691,1532.673 687.992,1532.673C687.129,1532.673 686.595,1533.095 686.389,1533.94C686.183,1534.785 686.081,1537.063 686.081,1540.773L686.081,1545.594L689.719,1545.594Z" style="fill-rule:nonzero;"/>
        </g>
        <g transform="matrix(1.108518,0,0,0.687783,-59.781797,530.488688)">
            <path d="M746.515,1522.187L741.55,1588.133L728.014,1588.133C727.274,1580.082 726.421,1569.481 725.455,1556.328C725.126,1562.093 724.664,1567.924 724.068,1573.821L722.68,1588.133L709.144,1588.133L703.872,1522.187L714.602,1522.187C714.684,1523.91 715.588,1536.483 717.315,1559.906C717.438,1557.521 718.363,1544.948 720.09,1522.187L730.419,1522.187L732.948,1559.906C733.338,1548.907 734.284,1536.334 735.785,1522.187L746.515,1522.187Z" style="fill-rule:nonzero;"/>
        </g>
        <g transform="matrix(1.108518,0,0,0.687783,-59.781797,530.488688)">
            <path d="M800.104,1507.676L800.104,1588.133L788.757,1588.133L788.757,1533.816L784.224,1588.133L776.177,1588.133L771.397,1535.058L771.397,1588.133L760.051,1588.133L760.051,1507.676L776.855,1507.676C777.348,1512.513 777.872,1518.212 778.427,1524.771L780.216,1545.246L783.176,1507.676L800.104,1507.676Z" style="fill-rule:nonzero;"/>
        </g>
        <g transform="matrix(1.108518,0,0,0.687783,-59.781797,530.488688)">
            <path d="M833.126,1545.345L833.126,1561.496C833.126,1567.427 832.941,1571.775 832.571,1574.541C832.201,1577.308 831.41,1579.892 830.197,1582.294C828.984,1584.696 827.427,1586.468 825.526,1587.611C823.625,1588.754 821.44,1589.326 818.974,1589.326C816.219,1589.326 813.886,1588.837 811.975,1587.86C810.063,1586.882 808.578,1585.408 807.519,1583.437C806.46,1581.466 805.705,1579.08 805.253,1576.281C804.801,1573.481 804.574,1569.282 804.574,1563.683L804.574,1546.786C804.574,1540.657 804.986,1535.87 805.808,1532.424C806.63,1528.979 808.11,1526.213 810.248,1524.125C812.386,1522.038 815.12,1520.994 818.45,1520.994C821.245,1520.994 823.645,1521.665 825.649,1523.007C827.653,1524.349 829.2,1526.097 830.29,1528.25C831.379,1530.403 832.124,1532.623 832.525,1534.909C832.926,1537.195 833.126,1540.674 833.126,1545.345ZM820.67,1540.376C820.67,1536.996 820.557,1534.868 820.33,1533.99C820.104,1533.112 819.621,1532.673 818.881,1532.673C818.141,1532.673 817.648,1533.112 817.401,1533.99C817.155,1534.868 817.031,1536.996 817.031,1540.376L817.031,1570.143C817.031,1573.258 817.155,1575.287 817.401,1576.231C817.648,1577.175 818.131,1577.647 818.85,1577.647C819.59,1577.647 820.079,1577.217 820.315,1576.355C820.551,1575.494 820.67,1573.639 820.67,1570.789L820.67,1540.376Z" style="fill-rule:nonzero;"/>
        </g>
        <g transform="matrix(1.108518,0,0,0.687783,-59.781797,530.488688)">
            <path d="M849.684,1522.187L849.191,1530.834C851,1524.639 853.621,1521.359 857.053,1520.994L857.053,1544.202C854.772,1544.202 853.096,1544.699 852.027,1545.693C850.959,1546.687 850.301,1548.07 850.054,1549.843C849.807,1551.615 849.684,1555.698 849.684,1562.093L849.684,1588.133L837.227,1588.133L837.227,1522.187L849.684,1522.187Z" style="fill-rule:nonzero;"/>
        </g>
        <g transform="matrix(1.108518,0,0,0.687783,-59.781797,530.488688)">
            <path d="M888.041,1556.328L871.915,1556.328L871.915,1570.591C871.915,1573.572 872.049,1575.494 872.316,1576.355C872.583,1577.217 873.097,1577.647 873.858,1577.647C874.803,1577.647 875.435,1577.076 875.754,1575.933C876.073,1574.79 876.232,1572.578 876.232,1569.298L876.232,1560.602L888.041,1560.602L888.041,1565.472C888.041,1569.547 887.882,1572.678 887.563,1574.864C887.245,1577.051 886.5,1579.387 885.328,1581.871C884.156,1584.356 882.671,1586.22 880.872,1587.462C879.074,1588.705 876.818,1589.326 874.104,1589.326C871.473,1589.326 869.15,1588.713 867.136,1587.487C865.121,1586.261 863.554,1584.58 862.434,1582.443C861.314,1580.306 860.538,1577.954 860.106,1575.386C859.674,1572.819 859.458,1569.083 859.458,1564.18L859.458,1544.948C859.458,1539.183 859.941,1534.636 860.908,1531.306C861.874,1527.977 863.456,1525.426 865.656,1523.653C867.855,1521.881 870.384,1520.994 873.241,1520.994C876.736,1520.994 879.618,1522.063 881.89,1524.2C884.161,1526.337 885.754,1529.169 886.669,1532.698C887.584,1536.226 888.041,1541.187 888.041,1547.582L888.041,1556.328ZM875.554,1545.594L875.554,1540.773C875.554,1537.361 875.44,1535.158 875.214,1534.164C874.988,1533.17 874.526,1532.673 873.827,1532.673C872.964,1532.673 872.429,1533.095 872.224,1533.94C872.018,1534.785 871.915,1537.063 871.915,1540.773L871.915,1545.594L875.554,1545.594Z" style="fill-rule:nonzero;"/>
        </g>
        <g transform="matrix(1.108518,0,0,0.687783,-59.781797,530.488688)">
            <path d="M903.026,1522.038L932.688,1541.916L932.688,1552.054L903.026,1572.032L903.026,1558.912L921.342,1547.035L903.026,1535.207L903.026,1522.038Z" style="fill-rule:nonzero;"/>
        </g>
        <g transform="matrix(1.108518,0,0,0.687783,-59.781797,530.488688)">
            <path d="M193.411,1654.281L204.664,1776.115L184.54,1776.115L183.56,1754.217L176.509,1754.217L175.342,1776.115L154.985,1776.115L164.977,1654.281L193.411,1654.281ZM182.999,1732.619C182.003,1718.823 181.007,1701.79 180.011,1681.522C178.019,1704.801 176.774,1721.833 176.276,1732.619L182.999,1732.619Z" style="fill-rule:nonzero;"/>
        </g>
        <g transform="matrix(1.108518,0,0,0.687783,-59.781797,530.488688)">
            <path d="M208.026,1654.281L222.733,1654.281C232.227,1654.281 238.647,1654.983 241.993,1656.388C245.34,1657.792 247.884,1660.1 249.627,1663.311C251.37,1666.522 252.46,1670.096 252.896,1674.035C253.331,1677.973 253.549,1685.711 253.549,1697.25L253.549,1739.919C253.549,1750.855 253.23,1758.168 252.592,1761.855C251.954,1765.542 250.841,1768.427 249.254,1770.509C247.666,1772.591 245.705,1774.046 243.371,1774.874C241.036,1775.701 237.519,1776.115 232.819,1776.115L208.026,1776.115L208.026,1654.281ZM227.683,1675.126L227.683,1755.27C230.515,1755.27 232.258,1754.355 232.912,1752.524C233.566,1750.692 233.892,1745.713 233.892,1737.586L233.892,1690.252C233.892,1684.733 233.783,1681.196 233.566,1679.641C233.348,1678.086 232.85,1676.944 232.071,1676.217C231.293,1675.489 229.83,1675.126 227.683,1675.126Z" style="fill-rule:nonzero;"/>
        </g>
        <g transform="matrix(1.108518,0,0,0.687783,-59.781797,530.488688)">
            <path d="M260.88,1654.281L275.587,1654.281C285.081,1654.281 291.501,1654.983 294.848,1656.388C298.194,1657.792 300.738,1660.1 302.481,1663.311C304.225,1666.522 305.314,1670.096 305.75,1674.035C306.186,1677.973 306.404,1685.711 306.404,1697.25L306.404,1739.919C306.404,1750.855 306.084,1758.168 305.446,1761.855C304.808,1765.542 303.695,1768.427 302.108,1770.509C300.52,1772.591 298.559,1774.046 296.225,1774.874C293.89,1775.701 290.373,1776.115 285.673,1776.115L260.88,1776.115L260.88,1654.281ZM280.537,1675.126L280.537,1755.27C283.369,1755.27 285.112,1754.355 285.766,1752.524C286.42,1750.692 286.747,1745.713 286.747,1737.586L286.747,1690.252C286.747,1684.733 286.638,1681.196 286.42,1679.641C286.202,1678.086 285.704,1676.944 284.926,1676.217C284.148,1675.489 282.685,1675.126 280.537,1675.126Z" style="fill-rule:nonzero;"/>
        </g>
        <g transform="matrix(1.108518,0,0,0.687783,-59.781797,530.488688)">
            <path d="M370.183,1654.281L370.183,1678.663L358.511,1678.663L358.511,1776.115L338.854,1776.115L338.854,1678.663L327.228,1678.663L327.228,1654.281L370.183,1654.281Z" style="fill-rule:nonzero;"/>
        </g>
        <g transform="matrix(1.108518,0,0,0.687783,-59.781797,530.488688)">
            <path d="M419.583,1725.621C419.583,1737.862 419.404,1746.528 419.046,1751.62C418.688,1756.713 417.567,1761.366 415.684,1765.58C413.801,1769.794 411.256,1773.03 408.05,1775.288C404.844,1777.545 401.108,1778.674 396.844,1778.674C392.797,1778.674 389.163,1777.608 385.942,1775.476C382.72,1773.344 380.129,1770.145 378.168,1765.881C376.207,1761.617 375.039,1756.976 374.666,1751.959C374.292,1746.942 374.105,1738.163 374.105,1725.621L374.105,1704.775C374.105,1692.534 374.284,1683.868 374.642,1678.775C375,1673.683 376.121,1669.03 378.004,1664.816C379.887,1660.602 382.432,1657.366 385.638,1655.108C388.844,1652.851 392.58,1651.722 396.844,1651.722C400.891,1651.722 404.525,1652.788 407.746,1654.92C410.968,1657.052 413.559,1660.251 415.52,1664.515C417.481,1668.779 418.649,1673.42 419.022,1678.437C419.396,1683.454 419.583,1692.233 419.583,1704.775L419.583,1725.621ZM399.926,1685.586C399.926,1679.917 399.731,1676.292 399.342,1674.712C398.953,1673.131 398.151,1672.341 396.937,1672.341C395.91,1672.341 395.124,1672.981 394.579,1674.26C394.035,1675.54 393.762,1679.315 393.762,1685.586L393.762,1742.477C393.762,1749.551 393.941,1753.916 394.299,1755.571C394.657,1757.227 395.49,1758.055 396.797,1758.055C398.136,1758.055 398.992,1757.101 399.365,1755.195C399.739,1753.289 399.926,1748.748 399.926,1741.574L399.926,1685.586Z" style="fill-rule:nonzero;"/>
        </g>
        <g transform="matrix(1.108518,0,0,0.687783,-59.781797,530.488688)">
            <path d="M488.965,1654.281L488.965,1776.115L469.308,1776.115L469.308,1724.943L463.425,1724.943L463.425,1776.115L443.768,1776.115L443.768,1654.281L463.425,1654.281L463.425,1697.852L469.308,1697.852L469.308,1654.281L488.965,1654.281Z" style="fill-rule:nonzero;"/>
        </g>
        <g transform="matrix(1.108518,0,0,0.687783,-59.781797,530.488688)">
            <path d="M541.773,1725.621C541.773,1737.862 541.594,1746.528 541.236,1751.62C540.878,1756.713 539.757,1761.366 537.874,1765.58C535.991,1769.794 533.446,1773.03 530.24,1775.288C527.034,1777.545 523.299,1778.674 519.034,1778.674C514.988,1778.674 511.354,1777.608 508.132,1775.476C504.91,1773.344 502.319,1770.145 500.358,1765.881C498.397,1761.617 497.23,1756.976 496.856,1751.959C496.483,1746.942 496.296,1738.163 496.296,1725.621L496.296,1704.775C496.296,1692.534 496.475,1683.868 496.833,1678.775C497.191,1673.683 498.311,1669.03 500.195,1664.816C502.078,1660.602 504.622,1657.366 507.828,1655.108C511.035,1652.851 514.77,1651.722 519.034,1651.722C523.081,1651.722 526.715,1652.788 529.937,1654.92C533.158,1657.052 535.75,1660.251 537.711,1664.515C539.672,1668.779 540.839,1673.42 541.213,1678.437C541.586,1683.454 541.773,1692.233 541.773,1704.775L541.773,1725.621ZM522.116,1685.586C522.116,1679.917 521.921,1676.292 521.532,1674.712C521.143,1673.131 520.342,1672.341 519.128,1672.341C518.101,1672.341 517.315,1672.981 516.77,1674.26C516.225,1675.54 515.953,1679.315 515.953,1685.586L515.953,1742.477C515.953,1749.551 516.132,1753.916 516.49,1755.571C516.848,1757.227 517.68,1758.055 518.988,1758.055C520.326,1758.055 521.182,1757.101 521.556,1755.195C521.929,1753.289 522.116,1748.748 522.116,1741.574L522.116,1685.586Z" style="fill-rule:nonzero;"/>
        </g>
        <g transform="matrix(1.108518,0,0,0.687783,-59.781797,530.488688)">
            <path d="M609.755,1654.281L609.755,1776.115L592.573,1776.115L592.573,1693.864L585.709,1776.115L573.523,1776.115L566.286,1695.745L566.286,1776.115L549.103,1776.115L549.103,1654.281L574.55,1654.281C575.297,1661.605 576.091,1670.234 576.931,1680.168L579.639,1711.172L584.122,1654.281L609.755,1654.281Z" style="fill-rule:nonzero;"/>
        </g>
        <g transform="matrix(1.108518,0,0,0.687783,-59.781797,530.488688)">
            <path d="M617.646,1654.281L650.423,1654.281L650.423,1678.663L637.303,1678.663L637.303,1701.765L649.582,1701.765L649.582,1724.943L637.303,1724.943L637.303,1751.733L651.73,1751.733L651.73,1776.115L617.646,1776.115L617.646,1654.281Z" style="fill-rule:nonzero;"/>
        </g>
        <g transform="matrix(1.108518,0,0,0.687783,-59.781797,530.488688)">
            <path d="M715.884,1691.155L697.627,1691.155L697.627,1682.124C697.627,1677.91 697.394,1675.226 696.927,1674.072C696.46,1672.918 695.682,1672.341 694.592,1672.341C693.41,1672.341 692.515,1673.119 691.908,1674.674C691.301,1676.229 690.997,1678.587 690.997,1681.748C690.997,1685.812 691.34,1688.872 692.024,1690.929C692.678,1692.986 694.53,1695.469 697.581,1698.379C706.327,1706.757 711.837,1713.63 714.109,1718.998C716.382,1724.366 717.518,1733.02 717.518,1744.961C717.518,1753.64 716.887,1760.036 715.627,1764.15C714.366,1768.264 711.93,1771.713 708.32,1774.497C704.709,1777.282 700.507,1778.674 695.713,1778.674C690.453,1778.674 685.962,1777.069 682.243,1773.858C678.523,1770.647 676.087,1766.558 674.936,1761.592C673.784,1756.625 673.208,1749.576 673.208,1740.445L673.208,1732.469L691.464,1732.469L691.464,1747.293C691.464,1751.859 691.721,1754.794 692.235,1756.098C692.748,1757.402 693.659,1758.055 694.966,1758.055C696.273,1758.055 697.246,1757.227 697.884,1755.571C698.522,1753.916 698.841,1751.457 698.841,1748.196C698.841,1741.022 698.234,1736.332 697.02,1734.124C695.775,1731.917 692.709,1728.229 687.822,1723.062C682.935,1717.844 679.698,1714.057 678.111,1711.699C676.523,1709.341 675.208,1706.08 674.165,1701.916C673.122,1697.752 672.601,1692.434 672.601,1685.962C672.601,1676.631 673.34,1669.808 674.819,1665.493C676.297,1661.179 678.686,1657.805 681.986,1655.372C685.285,1652.939 689.27,1651.722 693.939,1651.722C699.044,1651.722 703.394,1653.051 706.989,1655.71C710.584,1658.369 712.965,1661.718 714.133,1665.757C715.3,1669.795 715.884,1676.656 715.884,1686.338L715.884,1691.155Z" style="fill-rule:nonzero;"/>
        </g>
        <g transform="matrix(1.108518,0,0,0.687783,-59.781797,530.488688)">
            <path d="M769.578,1707.409L749.921,1707.409L749.921,1686.188C749.921,1680.017 749.711,1676.167 749.291,1674.637C748.871,1673.106 747.945,1672.341 746.513,1672.341C744.894,1672.341 743.867,1673.269 743.431,1675.126C742.995,1676.982 742.778,1680.995 742.778,1687.166L742.778,1743.757C742.778,1749.676 742.995,1753.539 743.431,1755.346C743.867,1757.152 744.848,1758.055 746.373,1758.055C747.836,1758.055 748.793,1757.152 749.244,1755.346C749.696,1753.539 749.921,1749.3 749.921,1742.628L749.921,1727.351L769.578,1727.351L769.578,1732.092C769.578,1744.685 769.026,1753.615 767.921,1758.882C766.816,1764.15 764.372,1768.766 760.59,1772.729C756.808,1776.692 752.147,1778.674 746.606,1778.674C740.848,1778.674 736.101,1776.993 732.365,1773.632C728.63,1770.271 726.156,1765.618 724.942,1759.673C723.728,1753.728 723.121,1744.785 723.121,1732.845L723.121,1697.25C723.121,1688.471 723.307,1681.886 723.681,1677.496C724.054,1673.106 725.167,1668.88 727.019,1664.816C728.871,1660.752 731.439,1657.554 734.723,1655.221C738.007,1652.888 741.782,1651.722 746.046,1651.722C751.836,1651.722 756.614,1653.528 760.38,1657.14C764.146,1660.752 766.621,1665.255 767.804,1670.648C768.987,1676.041 769.578,1684.432 769.578,1695.82L769.578,1707.409Z" style="fill-rule:nonzero;"/>
        </g>
        <g transform="matrix(1.108518,0,0,0.687783,-59.781797,530.488688)">
            <path d="M776.629,1654.281L790.542,1654.281C799.818,1654.281 806.098,1654.858 809.382,1656.011C812.666,1657.165 815.343,1660.113 817.413,1664.854C819.483,1669.595 820.518,1677.158 820.518,1687.542C820.518,1697.024 819.787,1703.396 818.324,1706.657C816.861,1709.918 813.981,1711.874 809.686,1712.526C813.577,1714.082 816.191,1716.164 817.53,1718.772C818.868,1721.381 819.701,1723.777 820.028,1725.959C820.355,1728.142 820.518,1734.149 820.518,1743.982L820.518,1776.115L802.262,1776.115L802.262,1735.629C802.262,1729.107 801.943,1725.069 801.305,1723.513C800.667,1721.958 798.994,1721.181 796.285,1721.181L796.285,1776.115L776.629,1776.115L776.629,1654.281ZM796.285,1675.126L796.285,1702.217C798.496,1702.217 800.044,1701.728 800.931,1700.749C801.818,1699.771 802.262,1696.598 802.262,1691.23L802.262,1684.532C802.262,1680.669 801.834,1678.136 800.978,1676.932C800.122,1675.728 798.558,1675.126 796.285,1675.126Z" style="fill-rule:nonzero;"/>
        </g>
        <g transform="matrix(1.108518,0,0,0.687783,-59.781797,530.488688)">
            <path d="M828.129,1654.281L860.906,1654.281L860.906,1678.663L847.786,1678.663L847.786,1701.765L860.065,1701.765L860.065,1724.943L847.786,1724.943L847.786,1751.733L862.213,1751.733L862.213,1776.115L828.129,1776.115L828.129,1654.281Z" style="fill-rule:nonzero;"/>
        </g>
        <g transform="matrix(1.108518,0,0,0.687783,-59.781797,530.488688)">
            <path d="M867.863,1654.281L900.64,1654.281L900.64,1678.663L887.52,1678.663L887.52,1701.765L899.799,1701.765L899.799,1724.943L887.52,1724.943L887.52,1751.733L901.947,1751.733L901.947,1776.115L867.863,1776.115L867.863,1654.281Z" style="fill-rule:nonzero;"/>
        </g>
        <g transform="matrix(1.108518,0,0,0.687783,-59.781797,530.488688)">
            <path d="M951.486,1654.281L951.486,1776.115L934.257,1776.115L924.032,1720.729L924.032,1776.115L907.597,1776.115L907.597,1654.281L924.032,1654.281L935.051,1709.14L935.051,1654.281L951.486,1654.281Z" style="fill-rule:nonzero;"/>
        </g>
        <g transform="matrix(1,0,0,1,-12,10)">
            <path d="M126.963,1538.713L996.744,1538.713" style="fill:none;stroke:black;stroke-width:12px;"/>
        </g>
    </g>
</svg>
