<?xml version="1.0" encoding="UTF-8" standalone="no"?>
<!DOCTYPE svg PUBLIC "-//W3C//DTD SVG 1.1//EN" "http://www.w3.org/Graphics/SVG/1.1/DTD/svg11.dtd">
<svg width="100%" height="100%" viewBox="0 0 1008 354" version="1.1" xmlns="http://www.w3.org/2000/svg" xmlns:xlink="http://www.w3.org/1999/xlink" xml:space="preserve" xmlns:serif="http://www.serif.com/" style="fill-rule:evenodd;clip-rule:evenodd;stroke-linecap:round;stroke-linejoin:round;stroke-miterlimit:1.5;">
    <g transform="matrix(1,0,0,1,-58.999606,-1384.49971)">
        <g transform="matrix(1,0,0,1,0,44)">
            <g transform="matrix(1,0,0,1,0,-42)">
                <g transform="matrix(1.102762,0,0,0.761062,-29.132044,414.362832)">
                    <path d="M989,1504C989,1628.733 919.111,1730 833.028,1730L239.972,1730C153.889,1730 84,1628.733 84,1504C84,1379.267 153.889,1278 239.972,1278L833.028,1278C919.111,1278 989,1379.267 989,1504Z" style="fill:rgb(110,143,42);stroke:black;stroke-width:9.5px;"/>
                </g>
                <g transform="matrix(1.095044,0,0,1,-53.768295,25.515688)">
                    <path d="M119.875,1533.484L1007.625,1533.484" style="fill:none;"/>
                    <g transform="matrix(0.913206,0,0,1,49.101511,-27.515688)">
                        <path d="M221.5,1513L77.5,1561L221.5,1609L221.5,1513Z"/>
                        <path d="M905.625,1513L1049.625,1561L905.625,1609L905.625,1513Z"/>
                        <path d="M192.7,1561L934.425,1561" style="fill:none;stroke:black;stroke-width:32px;"/>
                    </g>
                </g>
            </g>
            <g transform="matrix(1,0,0,1,14.5,-41)">
                <rect x="442" y="1501" width="212" height="114" style="fill:rgb(110,143,42);"/>
            </g>
        </g>
        <g transform="matrix(1,0,0,1,0,44)">
            <g transform="matrix(0.583,0,0,0.256158,398.531234,1361)">
                <path d="M126.384,106.479L89.051,106.479L89.051,80.402C89.051,68.233 88.574,60.483 87.619,57.151C86.664,53.819 85.073,52.153 82.845,52.153C80.427,52.153 78.597,54.398 77.355,58.889C76.114,63.38 75.493,70.189 75.493,79.316C75.493,91.05 76.194,99.887 77.594,105.827C78.931,111.767 82.718,118.938 88.956,127.34C106.842,151.533 118.109,171.38 122.755,186.881C127.402,202.382 129.725,227.372 129.725,261.851C129.725,286.914 128.436,305.384 125.858,317.264C123.281,329.143 118.3,339.103 110.916,347.143C103.532,355.183 94.939,359.203 85.137,359.203C74.38,359.203 65.198,354.568 57.591,345.296C49.985,336.024 45.004,324.217 42.649,309.875C40.294,295.533 39.116,275.179 39.116,248.813L39.116,225.779L76.448,225.779L76.448,268.588C76.448,281.771 76.973,290.246 78.024,294.012C79.074,297.779 80.936,299.662 83.609,299.662C86.283,299.662 88.272,297.272 89.577,292.491C90.881,287.71 91.534,280.612 91.534,271.195C91.534,250.479 90.293,236.934 87.81,230.559C85.264,224.185 78.994,213.537 69.001,198.616C59.008,183.549 52.388,172.612 49.141,165.803C45.895,158.994 43.206,149.578 41.073,137.553C38.941,125.529 37.875,110.173 37.875,91.485C37.875,64.539 39.387,44.837 42.41,32.378C45.434,19.92 50.319,10.177 57.066,3.151C63.813,-3.875 71.961,-7.388 81.509,-7.388C91.948,-7.388 100.843,-3.549 108.195,4.129C115.547,11.807 120.416,21.477 122.803,33.139C125.19,44.801 126.384,64.612 126.384,92.571L126.384,106.479Z" style="fill:white;stroke:black;stroke-width:13.33px;stroke-linecap:butt;stroke-miterlimit:2;"/>
                <path d="M293.567,0L275.712,351.815L225.49,351.815C220.907,297.779 216.866,236.354 213.365,167.541C211.773,196.95 208.05,258.374 202.194,351.815L152.258,351.815L134.308,0L173.359,0L177.465,122.777L181.666,241.207C183.13,179.928 186.822,99.525 192.741,0L234.561,0C235.134,10.286 236.598,48.966 238.953,116.04L243.345,249.682C245.573,164.644 249.296,81.417 254.516,0L293.567,0Z" style="fill:white;stroke:black;stroke-width:13.33px;stroke-linecap:butt;stroke-miterlimit:2;"/>
                <rect x="301.587" y="0" width="40.197" height="351.815" style="fill:white;stroke:black;stroke-width:13.33px;stroke-linecap:butt;stroke-miterlimit:2;"/>
                <path d="M357.919,0L398.402,0C409.351,0 417.769,1.956 423.656,5.867C429.544,9.779 433.968,15.429 436.928,22.817C439.888,30.205 441.893,39.151 442.943,49.654C443.993,60.157 444.519,76.419 444.519,98.439L444.519,129.079C444.519,151.533 443.5,167.904 441.463,178.189C439.426,188.475 435.687,196.37 430.244,201.875C424.802,207.38 417.689,210.133 408.905,210.133L398.116,210.133L398.116,351.815L357.919,351.815L357.919,0ZM398.116,60.193L398.116,149.722C399.262,149.867 400.248,149.94 401.076,149.94C404.768,149.94 407.33,147.875 408.762,143.747C410.194,139.618 410.91,131.034 410.91,117.996L410.91,89.095C410.91,77.07 410.083,69.248 408.428,65.626C406.773,62.004 403.335,60.193 398.116,60.193Z" style="fill:white;stroke:black;stroke-width:13.33px;stroke-linecap:butt;stroke-miterlimit:2;"/>
                <path d="M456.071,0L523.097,0L523.097,70.406L496.268,70.406L496.268,137.119L521.379,137.119L521.379,204.048L496.268,204.048L496.268,281.409L525.771,281.409L525.771,351.815L456.071,351.815L456.071,0Z" style="fill:white;stroke:black;stroke-width:13.33px;stroke-linecap:butt;stroke-miterlimit:2;"/>
                <path d="M271.75,421.615L271.75,492.022L247.88,492.022L247.88,773.43L207.684,773.43L207.684,492.022L183.91,492.022L183.91,421.615L271.75,421.615Z" style="fill:white;stroke:black;stroke-width:13.33px;stroke-linecap:butt;stroke-miterlimit:2;"/>
                <path d="M372.766,627.62C372.766,662.968 372.4,687.994 371.668,702.698C370.936,717.402 368.645,730.839 364.794,743.008C360.943,755.177 355.739,764.521 349.183,771.04C342.627,777.559 334.989,780.819 326.268,780.819C317.993,780.819 310.562,777.74 303.974,771.583C297.386,765.426 292.087,756.191 288.077,743.877C284.067,731.563 281.68,718.163 280.916,703.676C280.152,689.189 279.77,663.837 279.77,627.62L279.77,567.426C279.77,532.078 280.136,507.052 280.868,492.348C281.6,477.644 283.892,464.207 287.743,452.038C291.594,439.869 296.797,430.525 303.353,424.006C309.91,417.487 317.548,414.227 326.268,414.227C334.543,414.227 341.974,417.306 348.562,423.462C355.15,429.619 360.45,438.855 364.46,451.169C368.47,463.483 370.857,476.883 371.621,491.37C372.384,505.857 372.766,531.209 372.766,567.426L372.766,627.62ZM332.57,512.014C332.57,495.644 332.172,485.177 331.376,480.613C330.581,476.05 328.942,473.768 326.459,473.768C324.359,473.768 322.751,475.615 321.637,479.31C320.524,483.004 319.967,493.905 319.967,512.014L319.967,676.296C319.967,696.722 320.333,709.326 321.065,714.106C321.797,718.887 323.499,721.278 326.173,721.278C328.91,721.278 330.66,718.525 331.424,713.02C332.188,707.515 332.57,694.404 332.57,673.688L332.57,512.014Z" style="fill:white;stroke:black;stroke-width:13.33px;stroke-linecap:butt;stroke-miterlimit:2;"/>
                <path d="M110.534,843.231L151.017,843.231C161.965,843.231 170.383,845.187 176.271,849.098C182.159,853.009 186.583,858.659 189.543,866.048C192.503,873.436 194.508,882.382 195.558,892.885C196.608,903.388 197.133,919.649 197.133,941.669L197.133,972.309C197.133,994.764 196.115,1011.134 194.078,1021.42C192.041,1031.706 188.302,1039.601 182.859,1045.106C177.417,1050.611 170.304,1053.364 161.52,1053.364L150.731,1053.364L150.731,1195.046L110.534,1195.046L110.534,843.231ZM150.731,903.424L150.731,992.953C151.876,993.098 152.863,993.17 153.691,993.17C157.382,993.17 159.944,991.106 161.377,986.977C162.809,982.849 163.525,974.265 163.525,961.227L163.525,932.325C163.525,920.301 162.697,912.478 161.042,908.857C159.387,905.235 155.95,903.424 150.731,903.424Z" style="fill:white;stroke:black;stroke-width:13.33px;stroke-linecap:butt;stroke-miterlimit:2;"/>
                <path d="M248.883,843.231L248.883,1124.639L273.325,1124.639L273.325,1195.046L208.686,1195.046L208.686,843.231L248.883,843.231Z" style="fill:white;stroke:black;stroke-width:13.33px;stroke-linecap:butt;stroke-miterlimit:2;"/>
                <path d="M357.346,843.231L380.357,1195.046L339.206,1195.046L337.2,1131.81L322.783,1131.81L320.396,1195.046L278.768,1195.046L299.2,843.231L357.346,843.231ZM336.055,1069.444C334.018,1029.605 331.981,980.422 329.944,921.895C325.87,989.114 323.324,1038.297 322.306,1069.444L336.055,1069.444Z" style="fill:white;stroke:black;stroke-width:13.33px;stroke-linecap:butt;stroke-miterlimit:2;"/>
                <path d="M461.132,843.231L431.82,1067.706L431.82,1195.046L394.583,1195.046L394.583,1067.706L366.321,843.231L403.272,843.231C409.064,911.754 412.31,957.895 413.011,981.653C415.238,944.132 418.962,897.991 424.182,843.231L461.132,843.231Z" style="fill:white;stroke:black;stroke-width:13.33px;stroke-linecap:butt;stroke-miterlimit:2;"/>
            </g>
        </g>
    </g>
</svg>
